<?xml version="1.0" encoding="UTF-8"?><svg id="a" xmlns="http://www.w3.org/2000/svg" viewBox="0 0 841.89 595.28"><defs><style>.b{fill:#ef1033;}.c{fill:#fff;}</style></defs><path d="M270.48,332.44c-.05,1.28-.08,2.32-.08,3.12v1.3c0,.18,.03,.29,.08,.33s.19,.07,.41,.07c1.11,0,2.01-.2,2.68-.61,.67-.41,1.01-1.09,1.01-2.05,0-.81-.25-1.42-.75-1.82-.5-.4-1.12-.6-1.87-.6-.43,0-.93,.09-1.49,.26m0,5.24c-.08,.15-.12,.4-.12,.77l-.06,2.72c0,.96,.02,1.5,.07,1.61,.05,.11,.22,.2,.51,.28,.29,.08,.75,.11,1.38,.11,.56,0,1.01-.08,1.36-.23,.35-.16,.67-.46,.96-.92,.29-.46,.44-1,.44-1.64,0-.95-.28-1.65-.84-2.09-.56-.45-1.39-.67-2.48-.67-.37,0-.77,.02-1.21,.06m3.02-.41c1.09,.29,1.9,.69,2.45,1.21,.54,.52,.81,1.14,.81,1.88,0,.79-.34,1.52-1.01,2.19-.67,.68-1.66,1.01-2.97,1.01-.25,0-.64-.01-1.18-.04-.35-.02-.53-.03-.56-.03-1.8,0-3.02,.02-3.66,.05-.21,0-.32-.05-.32-.17,0-.06,.03-.1,.09-.12,.06-.02,.29-.07,.68-.14,.23-.04,.42-.14,.55-.3,.13-.16,.24-.48,.31-.97,.07-.49,.11-1.21,.11-2.17s.01-1.71,.04-2.3c.02-.58,.03-1.03,.03-1.34,0-.97-.04-1.74-.11-2.33-.07-.59-.18-.96-.31-1.12-.13-.16-.41-.28-.83-.34-.17-.02-.26-.09-.26-.19,0-.1,.09-.16,.26-.16l1.6,.03c.52,0,1.01-.01,1.47-.03,1.03-.05,1.69-.08,1.99-.08,1.09,0,1.95,.24,2.59,.71,.63,.47,.95,1.12,.95,1.94,0,.64-.21,1.2-.62,1.66-.42,.46-1.11,.84-2.09,1.14"/><path d="M284.32,337.48c.33-.36,.83-1.02,1.5-1.97,.67-.95,1.07-1.54,1.19-1.77,.12-.23,.18-.41,.18-.55,0-.24-.12-.43-.36-.58-.24-.14-.49-.22-.74-.22-.2,0-.3-.05-.3-.16,0-.11,.17-.17,.5-.17h3.31c.31,0,.46,.06,.46,.18,0,.1-.07,.15-.2,.15-.34,0-.68,.08-1,.24s-.71,.51-1.16,1.06l-1.53,2.07c-.8,1.08-1.24,1.71-1.3,1.9-.09,.28-.14,1-.14,2.19,0,1.57,.07,2.5,.2,2.8,.13,.29,.56,.47,1.28,.54,.19,.02,.28,.08,.28,.18,0,.12-.1,.18-.31,.18l-2.37-.05c-.57,0-1.04,.01-1.4,.03-.29,.02-.48,.03-.56,.03-.22,0-.33-.06-.33-.18,0-.09,.08-.14,.25-.15,.57-.02,.94-.24,1.13-.63,.19-.4,.28-.99,.28-1.77,0-.85-.05-1.55-.16-2.07-.02-.13-.28-.61-.76-1.44-.48-.82-1.07-1.73-1.76-2.73-.69-1-1.19-1.61-1.49-1.82s-.59-.34-.87-.36c-.21-.02-.32-.08-.32-.18,0-.07,.03-.11,.08-.13,.06-.02,.22-.03,.5-.03h3.84c.26,0,.42,0,.48,.03s.08,.06,.08,.14c0,.09-.07,.15-.22,.16-.74,.06-1.11,.28-1.11,.67,0,.2,.14,.51,.4,.94,.27,.43,1.09,1.59,2.46,3.47"/><path d="M301.75,332.61c.16-.16,.26-.32,.32-.49,.05-.14,.12-.21,.2-.21,.05,0,.1,.03,.16,.09,.04,.21,.1,.64,.18,1.27l.21,1.65c0,.11-.06,.16-.19,.16-.07,0-.13-.06-.19-.18-.31-.77-.77-1.41-1.38-1.92-.61-.5-1.28-.76-2-.76s-1.24,.21-1.6,.64c-.36,.43-.54,.88-.54,1.36,0,.59,.2,1.03,.59,1.35,.39,.31,1.2,.66,2.43,1.05,.9,.28,1.58,.55,2.02,.82,.45,.26,.82,.63,1.13,1.11,.31,.48,.46,.99,.46,1.53,0,.93-.38,1.76-1.15,2.49-.77,.73-1.71,1.1-2.82,1.1-1,0-2.01-.31-3.02-.94-.2,.16-.33,.36-.39,.58-.05,.19-.12,.28-.23,.28-.09,0-.16-.12-.2-.36-.04-.24-.13-1.38-.26-3.41,.02-.07,.09-.11,.19-.11,.09,0,.16,.06,.21,.19,.9,2.27,2.16,3.4,3.78,3.4,.8,0,1.43-.24,1.89-.72,.45-.48,.68-1.04,.68-1.67,0-.43-.12-.83-.37-1.2-.24-.36-.57-.66-.97-.88-.4-.22-1.03-.47-1.9-.75-1.11-.36-1.87-.69-2.27-1.01-.4-.32-.7-.68-.88-1.08-.19-.4-.28-.79-.28-1.16,0-.78,.35-1.47,1.06-2.07,.71-.6,1.57-.91,2.6-.91,.39,0,.79,.06,1.22,.19,.42,.12,.87,.31,1.33,.56"/><path d="M306.11,341.87c.23,0,.44,.08,.61,.25,.17,.16,.26,.37,.26,.61s-.09,.45-.26,.62c-.17,.17-.38,.26-.61,.26s-.44-.09-.61-.26c-.17-.17-.26-.38-.26-.62s.09-.44,.26-.61c.17-.17,.37-.26,.61-.26"/><path d="M311.99,337.58c.86,.03,1.35,.04,1.47,.04,.6,0,1.16-.1,1.69-.31,.53-.2,.91-.57,1.16-1.11,.24-.53,.37-1.06,.37-1.58,0-.66-.22-1.22-.67-1.68-.45-.46-1.26-.69-2.42-.69-.6,0-1.13,.06-1.58,.19,0,.21-.01,.34-.01,.4l.03,2.02-.03,2.15c0,.1,0,.29,.01,.56m0,.35c0,.26-.02,.66-.05,1.19-.02,.26-.03,.52-.03,.78,0,.2,.01,.63,.03,1.29,.02,.66,.06,1.07,.12,1.23s.2,.32,.4,.47c.21,.15,.43,.23,.67,.25,.27,.02,.4,.08,.4,.18,0,.08-.04,.13-.12,.14-.08,.02-.39,.02-.93,.02h-2.42c-.68,0-1.04-.02-1.09-.04-.04-.02-.07-.06-.07-.12,0-.09,.11-.16,.33-.21,.39-.09,.67-.22,.82-.41,.16-.19,.25-.59,.28-1.21,.03-.62,.05-1.33,.05-2.14l-.03-2.35,.03-2.53c0-.9-.06-1.47-.18-1.72-.12-.25-.36-.4-.72-.47-.39-.07-.58-.15-.58-.25s.09-.15,.26-.15h4.53c1.84,0,3.08,.28,3.71,.85,.64,.57,.95,1.29,.95,2.15,0,1.02-.42,1.79-1.25,2.31-.83,.51-2.08,.77-3.75,.77-.4,0-.87-.02-1.41-.05"/><path d="M329.18,332.09c.17,.66,.34,1.58,.5,2.76-.03,.05-.06,.07-.09,.07-.04,0-.08-.02-.13-.07-.4-.65-.79-1.15-1.16-1.49-.37-.34-.74-.58-1.11-.72-.37-.14-1.01-.22-1.92-.22-.86,0-1.53,.05-2.03,.15-.05,.06-.07,.17-.07,.32,0,.04,0,.11-.02,.22-.06,.47-.09,1.74-.09,3.81,0,.09,0,.21,.02,.37,.45,.02,.75,.03,.92,.03,.74,0,1.27-.11,1.6-.33,.33-.22,.62-.7,.87-1.42,.04-.12,.1-.19,.18-.19,.11,0,.16,.09,.16,.26l-.03,.35c-.05,.46-.07,.94-.07,1.44,0,.8,.01,1.52,.04,2.16,0,.2-.05,.3-.16,.3-.08,0-.13-.07-.16-.21-.12-.69-.38-1.19-.78-1.49-.39-.3-1.25-.46-2.57-.46-.02,.43-.03,1.12-.03,2.07,0,1.24,.04,2.02,.13,2.36,.09,.33,.3,.6,.63,.8,.33,.2,.9,.29,1.7,.29,2.28,0,3.75-.78,4.41-2.36,.08-.19,.17-.29,.25-.29,.09,0,.14,.07,.14,.19,0,.07-.01,.15-.04,.23-.04,.11-.12,.53-.26,1.25-.03,.15-.14,.61-.33,1.37h-3.68c-.53,0-1.3-.03-2.32-.07-1.02-.05-1.93-.07-2.72-.07-.79,0-1.2-.02-1.23-.05-.03-.03-.05-.06-.05-.1,0-.12,.1-.18,.29-.18,.65,0,1.08-.17,1.28-.52,.2-.34,.31-1.19,.31-2.52v-1.8l.02-1.69c0-.34-.02-.98-.06-1.93-.04-.95-.07-1.49-.1-1.62-.03-.14-.12-.27-.27-.4-.15-.13-.48-.26-.99-.4-.15-.04-.23-.11-.23-.19,0-.11,.1-.16,.31-.16l1.79,.1c.63,.03,2.19,.04,4.67,.04,1.63,0,2.46,0,2.5,0"/><path d="M341.29,343.53c-.29,.01-.45,.02-.49,.02-.22,0-.61-.01-1.18-.03-.57-.02-1.75-.03-3.54-.03h-2.23c-.08,0-.38,.01-.9,.04-.52,.03-.83,.04-.94,.04-.45,0-.67-.06-.67-.18,0-.09,.09-.14,.26-.15,.57-.04,.96-.16,1.19-.37,.22-.21,.38-.51,.46-.9,.08-.39,.12-1.44,.12-3.16v-3.15c0-1.02-.04-1.73-.13-2.14-.09-.4-.28-.71-.56-.93-.28-.21-.6-.34-.96-.36-.19-.02-.28-.08-.28-.19s.08-.16,.25-.16c.04,0,.12,0,.23,0,.93,.06,2.02,.09,3.27,.09l1.55-.03c.16,0,.24,.06,.24,.18,0,.11-.09,.16-.26,.16-.42,0-.76,.08-1.04,.25-.28,.16-.46,.35-.55,.57-.09,.21-.14,.63-.14,1.25l-.07,4.16,.02,2.32c0,.72,.03,1.19,.09,1.41,.06,.22,.19,.41,.38,.59,.19,.17,.54,.26,1.05,.26,.04,0,.57-.02,1.57-.05,.8-.11,1.52-.5,2.16-1.18,.64-.67,1.07-1.28,1.28-1.81,.06-.15,.14-.23,.24-.23,.1,0,.15,.07,.15,.21,0,.16-.08,.75-.25,1.76-.17,1.01-.27,1.59-.31,1.73"/><path d="M352.36,343.53c-.29,.01-.45,.02-.49,.02-.22,0-.61-.01-1.18-.03-.57-.02-1.75-.03-3.55-.03h-2.23c-.08,0-.38,.01-.9,.04-.52,.03-.83,.04-.94,.04-.44,0-.67-.06-.67-.18,0-.09,.09-.14,.26-.15,.57-.04,.96-.16,1.18-.37,.22-.21,.38-.51,.46-.9,.08-.39,.12-1.44,.12-3.16v-3.15c0-1.02-.04-1.73-.13-2.14-.09-.4-.28-.71-.56-.93-.28-.21-.61-.34-.96-.36-.19-.02-.28-.08-.28-.19s.09-.16,.26-.16c.04,0,.12,0,.23,0,.93,.06,2.02,.09,3.27,.09l1.55-.03c.16,0,.24,.06,.24,.18,0,.11-.08,.16-.25,.16-.42,0-.76,.08-1.04,.25-.28,.16-.46,.35-.55,.57-.09,.21-.14,.63-.14,1.25l-.07,4.16,.02,2.32c0,.72,.03,1.19,.09,1.41,.06,.22,.19,.41,.38,.59,.19,.17,.55,.26,1.06,.26,.04,0,.56-.02,1.57-.05,.8-.11,1.53-.5,2.16-1.18,.64-.67,1.06-1.28,1.28-1.81,.06-.15,.14-.23,.23-.23,.1,0,.15,.07,.15,.21,0,.16-.08,.75-.25,1.76-.17,1.01-.27,1.59-.31,1.73"/><path d="M363.12,332.09c.17,.66,.34,1.58,.5,2.76-.03,.05-.06,.07-.09,.07-.04,0-.08-.02-.13-.07-.4-.65-.79-1.15-1.16-1.49-.37-.34-.74-.58-1.11-.72-.37-.14-1.01-.22-1.92-.22-.86,0-1.53,.05-2.03,.15-.05,.06-.07,.17-.07,.32,0,.04,0,.11-.02,.22-.06,.47-.09,1.74-.09,3.81,0,.09,0,.21,.02,.37,.45,.02,.75,.03,.92,.03,.74,0,1.27-.11,1.6-.33,.33-.22,.62-.7,.87-1.42,.04-.12,.1-.19,.18-.19,.11,0,.17,.09,.17,.26l-.04,.35c-.05,.46-.07,.94-.07,1.44,0,.8,.01,1.52,.05,2.16,0,.2-.06,.3-.16,.3-.08,0-.13-.07-.16-.21-.12-.69-.38-1.19-.78-1.49-.39-.3-1.25-.46-2.57-.46-.02,.43-.03,1.12-.03,2.07,0,1.24,.04,2.02,.13,2.36,.09,.33,.3,.6,.63,.8,.33,.2,.9,.29,1.7,.29,2.28,0,3.75-.78,4.42-2.36,.08-.19,.17-.29,.25-.29,.09,0,.14,.07,.14,.19,0,.07-.01,.15-.04,.23-.04,.11-.12,.53-.26,1.25-.03,.15-.14,.61-.33,1.37h-3.68c-.53,0-1.3-.03-2.32-.07-1.02-.05-1.93-.07-2.72-.07-.79,0-1.2-.02-1.23-.05-.04-.03-.05-.06-.05-.1,0-.12,.1-.18,.29-.18,.65,0,1.08-.17,1.28-.52,.2-.34,.31-1.19,.31-2.52v-1.8l.02-1.69c0-.34-.02-.98-.06-1.93-.04-.95-.07-1.49-.11-1.62-.03-.14-.12-.27-.27-.4-.15-.13-.48-.26-.99-.4-.15-.04-.23-.11-.23-.19,0-.11,.1-.16,.31-.16l1.79,.1c.63,.03,2.19,.04,4.67,.04,1.63,0,2.46,0,2.5,0"/><path d="M376.79,335.68c-.08,0-.15-.09-.24-.28-.48-1.06-1.11-1.87-1.9-2.45-.79-.57-1.63-.86-2.52-.86-.73,0-1.44,.22-2.13,.66-.69,.44-1.25,1.12-1.68,2.05-.43,.92-.65,1.9-.65,2.95,0,1.49,.44,2.77,1.34,3.86,.89,1.08,2,1.63,3.34,1.63,.47,0,.88-.07,1.21-.22,.33-.15,.65-.36,.94-.63,.3-.27,.47-.48,.54-.61,.06-.14,.09-.49,.09-1.06,0-.96-.13-1.59-.38-1.9-.25-.31-.66-.46-1.23-.46h-.27c-.17,0-.25-.05-.25-.16,0-.13,.09-.2,.28-.2l.47,.02,1.99-.03,2.44-.05c.14,0,.2,.06,.2,.19s-.08,.19-.23,.2c-.36,.03-.66,.11-.89,.24-.23,.12-.37,.26-.42,.42-.05,.16-.08,.43-.08,.8,0,1.37-.03,2.12-.1,2.26-.06,.13-.61,.44-1.64,.92-1.02,.48-2.06,.72-3.09,.72-1.72,0-3.19-.55-4.4-1.65-1.22-1.1-1.83-2.5-1.83-4.18,0-1.16,.29-2.21,.87-3.15,.58-.94,1.37-1.67,2.37-2.19,1-.52,2.02-.78,3.06-.78,.97,0,2.02,.28,3.15,.84,.32,.16,.54,.24,.67,.24,.18,0,.32-.08,.42-.24,.09-.14,.17-.2,.24-.2,.14,0,.21,.17,.24,.51,.04,.53,.12,1.35,.26,2.44,.01,.06,.02,.11,.02,.16,0,.14-.06,.21-.19,.21"/><path d="M382.75,337.37c1.12-.02,1.97-.1,2.53-.24,.56-.13,1.04-.43,1.44-.89,.4-.46,.59-1,.59-1.63,0-.66-.22-1.24-.66-1.73-.44-.49-1.14-.74-2.11-.74-.53,0-1.11,.07-1.75,.21-.07,1.61-.11,2.89-.11,3.85,0,.33,.02,.72,.06,1.16m3.33,.22c.81,.35,1.38,.72,1.7,1.11,.32,.38,.55,.98,.7,1.78,.2,1.05,.47,1.76,.82,2.13,.35,.36,.81,.56,1.38,.58,.16,.01,.24,.07,.24,.17s-.09,.15-.27,.15c-1.64,0-2.63-.05-2.98-.16-.35-.11-.61-.71-.78-1.8-.16-1.06-.32-1.83-.5-2.32-.17-.49-.45-.86-.83-1.12-.38-.26-.97-.39-1.77-.39-.31,0-.65,.03-1.04,.1-.03,.37-.04,.75-.04,1.15,0,1.5,.02,2.48,.06,2.92,.04,.44,.17,.76,.38,.97,.21,.2,.56,.31,1.04,.32,.21,0,.32,.06,.32,.15,0,.11-.13,.17-.39,.17h-4.35c-.25,0-.38-.06-.38-.17,0-.1,.1-.15,.3-.15,.45,0,.75-.07,.93-.2,.17-.13,.31-.34,.41-.63,.1-.28,.15-.8,.15-1.54l-.02-1.79v-2.73c.01-1.39-.02-2.32-.08-2.77-.06-.45-.17-.75-.33-.91-.16-.15-.53-.28-1.1-.36-.12-.02-.18-.07-.18-.15,0-.09,.12-.14,.37-.14l5.2-.11c1.44,0,2.48,.28,3.12,.83,.65,.55,.97,1.22,.97,2.02,0,.5-.13,.96-.39,1.38-.26,.41-.57,.72-.93,.9-.36,.19-.93,.4-1.72,.64"/><path d="M392.19,331.9l1.6,.04,2.46-.04c.29,0,.44,.06,.44,.18,0,.09-.08,.14-.24,.17-.65,.08-1.06,.32-1.22,.7-.16,.39-.24,1.82-.24,4.29,0,.91,.02,1.93,.07,3.07,.05,1.14,.1,1.82,.16,2.04,.06,.22,.17,.4,.33,.55,.16,.14,.47,.24,.91,.3,.15,.02,.22,.07,.22,.17,0,.11-.07,.16-.2,.16l-2.18-.02-1.86,.03c-.21,0-.31-.06-.31-.18s.08-.18,.25-.18c.55-.01,.87-.19,.96-.55,.09-.35,.14-1.47,.14-3.37s-.02-3.31-.05-4.44-.13-1.82-.29-2.07c-.16-.25-.46-.41-.9-.47-.17-.03-.25-.1-.25-.2s.06-.16,.19-.16"/><path d="M400.94,332.05c.35,.48,.96,1.21,1.83,2.21l2.81,3.26,2.71,3.13c.06-1.06,.09-2.44,.09-4.13,0-1.27-.03-2.12-.08-2.55-.05-.43-.25-.79-.59-1.09-.34-.29-.76-.44-1.26-.44-.23,0-.35-.05-.35-.15,0-.06,.03-.1,.07-.13,.05-.02,.44-.05,1.18-.08,.74-.03,1.36-.04,1.86-.04h1.38c.18,0,.27,.06,.27,.16,0,.09-.08,.15-.24,.16-.59,.06-1.02,.22-1.28,.46-.26,.24-.42,.59-.47,1.05-.05,.46-.07,2-.07,4.62l-.09,4.64c0,.23-.06,.35-.17,.35-.03,0-.07-.01-.12-.04-.05-.03-.31-.32-.79-.89-.47-.56-1.06-1.24-1.75-2.03-.69-.79-1.24-1.43-1.64-1.93-.87-1.06-1.42-1.71-1.65-1.96-.85-.9-1.35-1.48-1.5-1.74-.1-.18-.19-.26-.27-.26-.06,0-.1,.11-.1,.34l.02,1.36c0,1.73,.05,3.11,.14,4.14,.09,1.03,.19,1.64,.29,1.81,.1,.18,.28,.36,.54,.54,.25,.18,.53,.27,.81,.27,.39,0,.58,.07,.58,.21,0,.11-.11,.16-.33,.16h-4.23c-.2,0-.3-.06-.3-.16,0-.12,.1-.18,.29-.18,.72,0,1.2-.16,1.44-.48,.24-.32,.36-1,.36-2.03l-.07-3.09c0-1.82-.05-2.9-.15-3.22-.1-.33-.32-.72-.67-1.19-.35-.47-.75-.73-1.19-.79-.2-.02-.3-.08-.3-.16,0-.11,.13-.17,.39-.17l2.58,.02Z"/><path d="M413.96,337.38c0,.96,.15,1.94,.44,2.94,.29,1.01,.75,1.74,1.38,2.19,.63,.45,1.3,.68,2.01,.68,1.15,0,2.08-.56,2.77-1.68,.69-1.12,1.04-2.42,1.04-3.9s-.35-2.69-1.06-3.77c-.71-1.08-1.63-1.62-2.77-1.62-.86,0-1.58,.29-2.15,.87-.57,.58-.99,1.27-1.26,2.07-.26,.8-.39,1.55-.39,2.23m-1.96,.29c0-.79,.24-1.66,.72-2.61,.48-.95,1.18-1.73,2.1-2.34,.92-.61,1.96-.92,3.12-.92,1.62,0,2.96,.58,4.02,1.74,1.06,1.16,1.59,2.48,1.59,3.97,0,1.58-.59,3-1.76,4.26-1.17,1.26-2.58,1.88-4.23,1.88s-2.9-.55-3.97-1.65c-1.07-1.1-1.6-2.55-1.6-4.33"/><path d="M433.7,336.17c.75-.66,1.12-1.35,1.12-2.05,0-.43-.15-.8-.44-1.12-.29-.32-.64-.48-1.03-.48-.37,0-.66,.13-.89,.4-.22,.27-.33,.58-.33,.94,0,.69,.52,1.46,1.56,2.3m-.7,1.23c-.6,.39-1.07,.81-1.41,1.25-.34,.44-.51,.98-.51,1.61,0,.73,.23,1.34,.7,1.83,.47,.5,1.01,.74,1.64,.74,.9,0,1.83-.48,2.79-1.44-.48-.87-.9-1.54-1.27-2.01-.37-.47-1.01-1.13-1.93-1.98m4.35,3.23c.53,1.02,.94,1.64,1.23,1.87,.29,.23,.57,.34,.86,.34,.39,0,.76-.16,1.12-.47,.04-.04,.08-.06,.1-.06,.12,0,.18,.06,.18,.17s-.27,.33-.8,.67c-.53,.33-1.06,.5-1.59,.5-.32,0-.61-.1-.88-.29-.27-.19-.66-.73-1.17-1.62-1.31,1.27-2.57,1.91-3.78,1.91-.83,0-1.52-.25-2.09-.76-.57-.5-.85-1.14-.85-1.9,0-.72,.23-1.37,.7-1.96,.46-.59,1.24-1.23,2.35-1.94-1.06-1.05-1.59-1.97-1.59-2.76,0-.67,.24-1.21,.71-1.63,.47-.42,1.02-.62,1.63-.62,.54,0,1.03,.17,1.46,.52,.43,.35,.64,.8,.64,1.37,0,.76-.52,1.58-1.57,2.47,1.38,1.13,2.43,2.39,3.15,3.79,.76-1.17,1.13-2.08,1.13-2.73,0-.29-.09-.53-.28-.71-.18-.18-.44-.27-.77-.27-.29,0-.43-.05-.43-.16,0-.12,.06-.18,.19-.18l1.55,.06,2.07-.02c.17,0,.25,.06,.25,.17s-.11,.16-.32,.16c-.42,.01-.78,.17-1.08,.47-.3,.3-.65,.89-1.06,1.78-.39,.85-.74,1.46-1.05,1.83"/><path d="M451.15,333.67c-.54,1.11-1.18,2.73-1.91,4.85,.6-.03,1.04-.04,1.3-.04l2.47,.04c-.22-.61-.52-1.42-.91-2.43-.48-1.2-.8-2.01-.95-2.43m.35-1.92h.41c.65,1.34,1.56,3.64,2.71,6.88,.74,2.08,1.25,3.36,1.53,3.83,.28,.47,.72,.73,1.33,.79,.19,.02,.29,.08,.29,.19,0,.08-.05,.12-.15,.12h-.12c-.54-.06-1.22-.08-2.06-.08-1.28,0-2.1,.02-2.46,.06-.18,0-.27-.05-.27-.16,0-.08,.07-.12,.2-.14,.5-.05,.84-.13,1.03-.26,.19-.12,.29-.32,.29-.58s-.18-.88-.54-1.89l-.52-1.51c-.31,0-1.67,.02-4.09,.05-.61,1.62-.92,2.65-.92,3.07,0,.36,.15,.63,.45,.8,.3,.17,.6,.27,.89,.29,.22,.02,.33,.08,.33,.2,0,.05-.04,.09-.11,.13-.94-.04-1.5-.06-1.7-.06-.98,0-1.65,.01-1.99,.04-.19,0-.28-.05-.28-.16,0-.09,.08-.15,.25-.17,.68-.09,1.19-.55,1.55-1.37,.36-.83,.91-2.31,1.67-4.46,.69-1.95,1.45-3.82,2.27-5.61"/><path d="M467.88,332.71c.32-.29,.51-.48,.55-.58,.06-.14,.14-.21,.25-.21s.18,.11,.19,.32l.19,3.07c0,.18,0,.28-.02,.32-.01,.04-.06,.06-.13,.06-.09,0-.19-.13-.3-.38-.39-.93-.93-1.7-1.62-2.29-.7-.59-1.45-.89-2.27-.89-.71,0-1.37,.23-1.97,.69-.6,.46-1.06,1.11-1.39,1.97-.33,.85-.5,1.77-.5,2.75,0,1.66,.46,3.02,1.38,4.06,.92,1.04,1.94,1.56,3.07,1.56,.77,0,1.47-.24,2.12-.73,.65-.49,1.13-1.05,1.46-1.69,.09-.18,.18-.26,.27-.26,.13,0,.19,.07,.19,.21,0,.17-.22,.54-.67,1.12-.44,.57-1.03,1.04-1.75,1.4-.72,.36-1.5,.54-2.33,.54-.98,0-1.91-.25-2.79-.75-.88-.5-1.58-1.19-2.1-2.07-.51-.88-.77-1.91-.77-3.09s.25-2.21,.75-3.14c.5-.93,1.21-1.66,2.12-2.17,.91-.52,1.85-.77,2.82-.77,.52,0,1.04,.08,1.58,.24,.54,.16,1.09,.41,1.65,.73"/><path d="M472.49,337.47c0,.97,.14,1.91,.42,2.84,.28,.93,.72,1.64,1.31,2.14,.59,.5,1.28,.75,2.05,.75,1.13,0,2.05-.53,2.76-1.6,.7-1.07,1.05-2.38,1.05-3.92,0-1.46-.35-2.73-1.04-3.81s-1.63-1.62-2.8-1.62-2.06,.54-2.74,1.61c-.68,1.07-1.01,2.28-1.01,3.61m4.76,6.06c-.58,.08-1.03,.12-1.36,.12-.86,0-1.71-.24-2.55-.72-.84-.48-1.52-1.16-2.04-2.04-.52-.88-.77-1.88-.77-2.99,0-1.62,.57-3.05,1.72-4.27,1.15-1.22,2.55-1.83,4.21-1.83,1.07,0,2.02,.26,2.87,.78,.85,.52,1.51,1.23,2,2.14,.49,.91,.73,1.84,.73,2.79,0,.77-.17,1.57-.52,2.38-.35,.81-.8,1.5-1.36,2.07-.56,.57-1.21,1.06-1.94,1.47-.73,.41-1.59,.81-2.58,1.18-.74,.29-1.27,.5-1.57,.65,.24-.02,.43-.03,.56-.03,.43,0,.81,.07,1.14,.2,.33,.13,.86,.43,1.6,.9,.95,.59,1.68,.88,2.17,.88,.37,0,.68-.08,.93-.25,.25-.16,.55-.46,.9-.89,.09-.12,.18-.18,.25-.18,.11,0,.17,.06,.17,.17,0,.22-.32,.64-.95,1.27-.63,.63-1.41,.94-2.34,.94-.47,0-.96-.11-1.49-.34-.52-.22-1.29-.7-2.3-1.44-.57-.41-1.04-.62-1.39-.62s-.61,.11-.76,.32c-.15,.21-.25,.56-.3,1.04-.03,.33-.09,.56-.19,.69-.1,.13-.26,.2-.5,.2-.15,0-.29-.06-.43-.18-.13-.12-.2-.27-.2-.45,0-.29,.16-.63,.47-1.03,.32-.4,.74-.75,1.26-1.03,.52-.29,1.35-.65,2.5-1.09,1.06-.4,1.74-.68,2.05-.84"/><path d="M483.77,331.99h4.4c.25,0,.38,.05,.38,.16s-.09,.17-.28,.18c-.42,.04-.72,.15-.92,.34-.2,.19-.35,.52-.45,.99-.1,.47-.15,1.49-.15,3.05,0,1.87,.05,3.16,.16,3.88,.11,.72,.45,1.29,1.02,1.72,.57,.43,1.35,.64,2.33,.64s1.82-.2,2.35-.59,.89-.98,1.05-1.75c.16-.77,.24-2.45,.24-5.04,0-1.33-.14-2.2-.41-2.61-.27-.41-.68-.62-1.22-.62-.22,0-.33-.06-.33-.18s.15-.18,.43-.18h3.51c.16,0,.24,.06,.24,.18,0,.08-.06,.13-.19,.15-.44,.06-.77,.2-.98,.42-.21,.22-.35,.61-.41,1.18-.06,.57-.1,1.4-.1,2.51,0,1.38-.05,2.55-.15,3.51-.1,.96-.32,1.68-.66,2.15-.34,.47-.85,.85-1.53,1.14-.68,.29-1.52,.44-2.52,.44s-1.89-.16-2.61-.49c-.72-.32-1.2-.76-1.46-1.29-.26-.54-.38-1.34-.38-2.4l.03-2.44c0-2.16-.09-3.49-.28-3.97-.18-.48-.58-.73-1.19-.74-.2,0-.3-.05-.3-.15,0-.12,.12-.18,.37-.18"/><path d="M501.96,333.67c-.54,1.11-1.18,2.73-1.91,4.85,.6-.03,1.04-.04,1.3-.04l2.47,.04c-.22-.61-.52-1.42-.91-2.43-.48-1.2-.79-2.01-.95-2.43m.35-1.92h.41c.65,1.34,1.56,3.64,2.71,6.88,.74,2.08,1.25,3.36,1.53,3.83s.72,.73,1.33,.79c.19,.02,.29,.08,.29,.19,0,.08-.05,.12-.15,.12h-.12c-.54-.06-1.22-.08-2.06-.08-1.28,0-2.1,.02-2.46,.06-.18,0-.27-.05-.27-.16,0-.08,.07-.12,.2-.14,.5-.05,.84-.13,1.03-.26,.19-.12,.29-.32,.29-.58s-.18-.88-.53-1.89l-.52-1.51c-.31,0-1.67,.02-4.09,.05-.61,1.62-.92,2.65-.92,3.07,0,.36,.15,.63,.45,.8,.3,.17,.6,.27,.89,.29,.22,.02,.32,.08,.32,.2,0,.05-.04,.09-.11,.13-.94-.04-1.5-.06-1.69-.06-.98,0-1.65,.01-1.99,.04-.19,0-.28-.05-.28-.16,0-.09,.08-.15,.25-.17,.67-.09,1.19-.55,1.55-1.37,.36-.83,.92-2.31,1.67-4.46,.69-1.95,1.45-3.82,2.27-5.61"/><path d="M517.31,337.58c.86,.03,1.35,.04,1.47,.04,.6,0,1.16-.1,1.69-.31,.53-.2,.91-.57,1.15-1.11,.24-.53,.37-1.06,.37-1.58,0-.66-.22-1.22-.67-1.68-.45-.46-1.26-.69-2.42-.69-.6,0-1.13,.06-1.58,.19,0,.21,0,.34,0,.4l.04,2.02-.04,2.15c0,.1,0,.29,0,.56m0,.35c0,.26-.02,.66-.05,1.19-.02,.26-.02,.52-.02,.78,0,.2,0,.63,.03,1.29,.02,.66,.06,1.07,.12,1.23,.06,.16,.2,.32,.4,.47,.21,.15,.43,.23,.67,.25,.27,.02,.4,.08,.4,.18,0,.08-.04,.13-.12,.14-.08,.02-.39,.02-.93,.02h-2.42c-.68,0-1.04-.02-1.09-.04-.04-.02-.07-.06-.07-.12,0-.09,.11-.16,.33-.21,.39-.09,.67-.22,.82-.41,.15-.19,.25-.59,.29-1.21,.03-.62,.05-1.33,.05-2.14l-.03-2.35,.03-2.53c0-.9-.06-1.47-.18-1.72s-.36-.4-.72-.47c-.39-.07-.58-.15-.58-.25s.09-.15,.26-.15h4.54c1.84,0,3.08,.28,3.71,.85,.64,.57,.95,1.29,.95,2.15,0,1.02-.42,1.79-1.25,2.31-.83,.51-2.08,.77-3.75,.77-.4,0-.87-.02-1.41-.05"/><path d="M529.9,333.67c-.55,1.11-1.18,2.73-1.91,4.85,.6-.03,1.04-.04,1.3-.04l2.47,.04c-.22-.61-.52-1.42-.91-2.43-.48-1.2-.8-2.01-.95-2.43m.35-1.92h.41c.65,1.34,1.56,3.64,2.71,6.88,.74,2.08,1.25,3.36,1.53,3.83,.28,.47,.72,.73,1.33,.79,.19,.02,.29,.08,.29,.19,0,.08-.05,.12-.15,.12h-.12c-.54-.06-1.23-.08-2.06-.08-1.28,0-2.1,.02-2.46,.06-.18,0-.27-.05-.27-.16,0-.08,.07-.12,.2-.14,.5-.05,.84-.13,1.03-.26,.19-.12,.29-.32,.29-.58s-.18-.88-.54-1.89l-.52-1.51c-.31,0-1.67,.02-4.09,.05-.61,1.62-.92,2.65-.92,3.07,0,.36,.15,.63,.45,.8,.3,.17,.6,.27,.89,.29,.22,.02,.33,.08,.33,.2,0,.05-.04,.09-.11,.13-.94-.04-1.5-.06-1.7-.06-.98,0-1.65,.01-1.99,.04-.19,0-.28-.05-.28-.16,0-.09,.08-.15,.25-.17,.67-.09,1.19-.55,1.55-1.37,.36-.83,.91-2.31,1.67-4.46,.69-1.95,1.45-3.82,2.27-5.61"/><path d="M540.07,332.05c.35,.48,.96,1.21,1.83,2.21l2.81,3.26,2.71,3.13c.06-1.06,.09-2.44,.09-4.13,0-1.27-.03-2.12-.08-2.55-.05-.43-.25-.79-.58-1.09-.34-.29-.76-.44-1.26-.44-.23,0-.35-.05-.35-.15,0-.06,.03-.1,.07-.13,.05-.02,.45-.05,1.18-.08,.74-.03,1.36-.04,1.86-.04h1.38c.18,0,.27,.06,.27,.16,0,.09-.08,.15-.24,.16-.59,.06-1.02,.22-1.28,.46-.26,.24-.42,.59-.47,1.05-.05,.46-.07,2-.07,4.62l-.09,4.64c0,.23-.06,.35-.17,.35-.03,0-.07-.01-.12-.04-.05-.03-.32-.32-.79-.89-.48-.56-1.06-1.24-1.75-2.03-.69-.79-1.24-1.43-1.64-1.93-.87-1.06-1.43-1.71-1.65-1.96-.85-.9-1.35-1.48-1.5-1.74-.1-.18-.19-.26-.27-.26-.07,0-.1,.11-.1,.34l.02,1.36c0,1.73,.05,3.11,.14,4.14,.09,1.03,.19,1.64,.29,1.81,.1,.18,.28,.36,.54,.54s.53,.27,.81,.27c.39,0,.58,.07,.58,.21,0,.11-.11,.16-.32,.16h-4.23c-.2,0-.3-.06-.3-.16,0-.12,.1-.18,.29-.18,.72,0,1.2-.16,1.44-.48,.24-.32,.36-1,.36-2.03l-.07-3.09c0-1.82-.05-2.9-.15-3.22-.1-.33-.32-.72-.67-1.19-.35-.47-.75-.73-1.19-.79-.2-.02-.3-.08-.3-.16,0-.11,.13-.17,.39-.17l2.58,.02Z"/><path d="M553.57,332.05c.35,.48,.96,1.21,1.83,2.21l2.81,3.26,2.71,3.13c.06-1.06,.09-2.44,.09-4.13,0-1.27-.03-2.12-.08-2.55-.05-.43-.25-.79-.58-1.09-.34-.29-.76-.44-1.26-.44-.23,0-.35-.05-.35-.15,0-.06,.03-.1,.07-.13,.05-.02,.45-.05,1.18-.08,.74-.03,1.36-.04,1.86-.04h1.38c.18,0,.27,.06,.27,.16,0,.09-.08,.15-.24,.16-.59,.06-1.02,.22-1.28,.46-.26,.24-.42,.59-.47,1.05-.05,.46-.07,2-.07,4.62l-.09,4.64c0,.23-.06,.35-.17,.35-.03,0-.07-.01-.12-.04-.05-.03-.32-.32-.79-.89-.48-.56-1.06-1.24-1.75-2.03-.69-.79-1.24-1.43-1.64-1.93-.87-1.06-1.43-1.71-1.65-1.96-.85-.9-1.35-1.48-1.5-1.74-.1-.18-.19-.26-.27-.26-.07,0-.1,.11-.1,.34l.02,1.36c0,1.73,.05,3.11,.14,4.14,.09,1.03,.19,1.64,.29,1.81,.1,.18,.28,.36,.54,.54s.53,.27,.81,.27c.39,0,.58,.07,.58,.21,0,.11-.11,.16-.32,.16h-4.23c-.2,0-.3-.06-.3-.16,0-.12,.1-.18,.29-.18,.72,0,1.2-.16,1.44-.48,.24-.32,.36-1,.36-2.03l-.07-3.09c0-1.82-.05-2.9-.15-3.22-.1-.33-.32-.72-.67-1.19-.35-.47-.75-.73-1.19-.79-.2-.02-.3-.08-.3-.16,0-.11,.13-.17,.39-.17l2.58,.02Z"/><path d="M569.28,333.67c-.55,1.11-1.18,2.73-1.91,4.85,.6-.03,1.04-.04,1.3-.04l2.47,.04c-.22-.61-.52-1.42-.91-2.43-.48-1.2-.8-2.01-.95-2.43m.35-1.92h.41c.65,1.34,1.56,3.64,2.71,6.88,.74,2.08,1.25,3.36,1.53,3.83,.28,.47,.72,.73,1.33,.79,.19,.02,.29,.08,.29,.19,0,.08-.05,.12-.15,.12h-.12c-.54-.06-1.23-.08-2.06-.08-1.28,0-2.1,.02-2.46,.06-.18,0-.27-.05-.27-.16,0-.08,.07-.12,.2-.14,.5-.05,.84-.13,1.03-.26,.19-.12,.29-.32,.29-.58s-.18-.88-.54-1.89l-.52-1.51c-.31,0-1.67,.02-4.09,.05-.61,1.62-.92,2.65-.92,3.07,0,.36,.15,.63,.45,.8,.3,.17,.6,.27,.89,.29,.22,.02,.33,.08,.33,.2,0,.05-.04,.09-.11,.13-.94-.04-1.5-.06-1.7-.06-.98,0-1.65,.01-1.99,.04-.19,0-.28-.05-.28-.16,0-.09,.08-.15,.25-.17,.67-.09,1.19-.55,1.55-1.37,.36-.83,.91-2.31,1.67-4.46,.69-1.95,1.45-3.82,2.27-5.61"/><path d="M347.02,258.31l-.05,3.97c0,2.77,.04,4.32,.13,4.65,.08,.33,.27,.66,.55,1.01,.28,.35,.88,.55,1.77,.6,.48,.02,.72,.14,.72,.35,0,.24-.17,.35-.51,.35-.13,0-.46-.03-1.01-.08-1.11-.11-2.1-.16-2.96-.16-.73,0-1.74,.04-3.04,.12l-.9,.04c-.34,0-.51-.11-.51-.32s.25-.32,.75-.32c.69,0,1.18-.19,1.48-.58,.3-.39,.49-1.37,.59-2.95,.09-1.58,.14-3.67,.14-6.26,0-2.44-.04-4.37-.13-5.78-.09-1.41-.21-2.33-.36-2.77-.15-.44-.39-.75-.7-.94-.31-.19-.9-.31-1.77-.36-.34-.02-.51-.13-.51-.31,0-.17,.15-.26,.45-.28,2.68-.21,7.74-.32,15.18-.32,1.27,0,1.97,.02,2.08,.06,.11,.04,.19,.11,.24,.21,.05,.1,.19,.84,.43,2.22,.24,1.38,.36,2.1,.36,2.17,0,.22-.1,.34-.29,.34-.14,0-.27-.11-.4-.32-1.51-2.62-3.96-3.94-7.36-3.94-1.17,0-2.11,.05-2.84,.15-.72,.1-1.14,.22-1.26,.37-.12,.14-.19,.82-.23,2.02-.04,1.2-.06,3.29-.06,6.28,.85,.04,1.43,.06,1.75,.06,1.54,0,2.62-.33,3.22-.99,.61-.66,.92-1.34,.96-2.05,.02-.47,.14-.71,.37-.71,.24,0,.35,.16,.35,.48,0,.11-.01,.24-.03,.4-.08,.62-.12,2.21-.12,4.77v1.86c0,.45-.13,.67-.4,.67-.22,0-.34-.17-.35-.5-.03-.96-.34-1.75-.91-2.37-.58-.62-1.72-.92-3.42-.92-.28,0-.75,.02-1.41,.05"/><path d="M365.96,247.82l2.93,.06,4.49-.06c.54,0,.81,.11,.81,.32,0,.16-.15,.26-.43,.31-1.19,.15-1.93,.58-2.22,1.28-.29,.71-.44,3.32-.44,7.84,0,1.66,.04,3.53,.13,5.61,.08,2.08,.18,3.32,.29,3.73,.11,.41,.31,.74,.61,1,.3,.26,.86,.44,1.67,.55,.27,.03,.4,.13,.4,.31,0,.19-.12,.29-.37,.29l-3.99-.03-3.4,.05c-.38,0-.56-.11-.56-.32,0-.22,.15-.34,.45-.34,1-.02,1.58-.35,1.75-1,.17-.64,.26-2.69,.26-6.15s-.03-6.05-.09-8.11-.23-3.33-.52-3.79c-.29-.46-.84-.75-1.64-.87-.3-.05-.45-.18-.45-.37s.11-.29,.34-.29"/><path d="M385.38,248.09c.64,.87,1.76,2.21,3.34,4.03l5.14,5.96,4.95,5.72c.11-1.94,.16-4.46,.16-7.55,0-2.32-.05-3.88-.14-4.67-.1-.79-.45-1.45-1.07-1.98-.62-.53-1.38-.8-2.3-.8-.43,0-.64-.09-.64-.27,0-.11,.04-.19,.14-.23,.09-.05,.81-.1,2.16-.14,1.35-.05,2.48-.07,3.41-.07l2.17,.02h.35c.33,0,.5,.09,.5,.28,0,.17-.15,.27-.43,.3-1.08,.12-1.86,.4-2.34,.85-.48,.44-.76,1.08-.85,1.92-.09,.84-.14,3.65-.14,8.44l-.16,8.49c0,.43-.1,.64-.32,.64-.06,0-.13-.02-.22-.07-.09-.05-.57-.59-1.44-1.62-.87-1.03-1.94-2.27-3.21-3.72-1.27-1.45-2.27-2.62-3-3.52-1.6-1.94-2.6-3.13-3.02-3.58-1.55-1.65-2.47-2.71-2.75-3.18-.18-.32-.35-.48-.5-.48-.12,0-.18,.21-.18,.63l.03,2.49c0,3.16,.08,5.68,.26,7.57,.17,1.88,.35,2.99,.54,3.32,.19,.33,.51,.65,.98,.99,.46,.33,.96,.5,1.49,.5,.71,0,1.06,.13,1.06,.39,0,.19-.2,.29-.59,.29l-7.73-.02c-.36,0-.55-.09-.55-.27,0-.21,.18-.32,.53-.32,1.32,0,2.19-.29,2.63-.88,.44-.58,.66-1.82,.66-3.72l-.13-5.64c0-3.33-.09-5.29-.27-5.89-.18-.6-.59-1.32-1.23-2.17-.64-.85-1.36-1.33-2.18-1.44-.36-.04-.55-.14-.55-.29,0-.2,.24-.31,.71-.31l4.72,.03Z"/><path d="M425.93,248.17c.31,1.2,.62,2.88,.92,5.05-.05,.09-.11,.13-.17,.13-.07,0-.15-.04-.24-.13-.74-1.19-1.45-2.09-2.12-2.72-.67-.62-1.35-1.06-2.03-1.33-.68-.26-1.85-.39-3.51-.39-1.56,0-2.8,.09-3.71,.27-.09,.11-.13,.31-.13,.59,0,.07,0,.21-.03,.4-.11,.85-.16,3.18-.16,6.96,0,.16,.01,.38,.03,.67,.82,.03,1.37,.05,1.67,.05,1.35,0,2.33-.2,2.93-.61,.61-.4,1.13-1.27,1.58-2.61,.07-.23,.18-.34,.32-.34,.2,0,.3,.15,.3,.47l-.06,.64c-.09,.85-.13,1.72-.13,2.62,0,1.46,.03,2.77,.08,3.94,0,.36-.1,.55-.29,.55-.15,0-.24-.13-.29-.39-.23-1.26-.7-2.17-1.42-2.73-.72-.56-2.28-.84-4.69-.84-.03,.78-.05,2.05-.05,3.79,0,2.26,.08,3.69,.24,4.3,.16,.61,.55,1.1,1.16,1.45,.61,.36,1.65,.54,3.1,.54,4.17,0,6.86-1.44,8.07-4.31,.15-.35,.3-.53,.46-.53,.17,0,.25,.12,.25,.35,0,.13-.03,.27-.08,.42-.06,.2-.22,.96-.47,2.28-.05,.28-.26,1.11-.61,2.51h-6.73c-.96-.01-2.38-.06-4.25-.14-1.87-.08-3.53-.12-4.96-.13-1.44,0-2.19-.03-2.26-.09-.06-.05-.1-.11-.1-.18,0-.21,.18-.32,.53-.32,1.19,0,1.97-.32,2.35-.95,.38-.63,.56-2.17,.56-4.61l-.02-3.29,.05-3.08c0-.62-.04-1.79-.1-3.52-.07-1.73-.13-2.71-.19-2.96-.06-.25-.23-.49-.5-.73-.27-.24-.88-.48-1.81-.73-.28-.07-.42-.19-.42-.35,0-.19,.19-.29,.56-.29l3.28,.18c1.16,.05,4,.08,8.53,.08,2.98,0,4.5,0,4.56,.02"/><path d="M439.61,263.51c0,1.41,.1,2.42,.28,3.03,.19,.6,.59,1.1,1.21,1.49s1.6,.59,2.96,.59c1.95,0,3.53-.46,4.74-1.38,1.21-.92,2.15-2.15,2.83-3.68,.68-1.53,1.02-3.16,1.02-4.88,0-2.55-.78-4.86-2.33-6.92-1.55-2.07-3.97-3.1-7.25-3.1-1.46,0-2.31,.05-2.55,.14-.24,.1-.36,.38-.36,.85,0,.42-.04,1.16-.11,2.23-.11,1.56-.18,2.79-.21,3.66l-.14,4.42c-.06,2.07-.1,3.25-.1,3.55m.56-15.52l3.31-.06c4.19,0,7.35,1.02,9.49,3.05,2.14,2.04,3.21,4.6,3.21,7.69,0,2.2-.51,4.1-1.54,5.73-1.03,1.62-2.31,2.85-3.86,3.67-1.54,.83-3.6,1.24-6.17,1.24-.58,0-1.31-.03-2.2-.1-1.59-.13-2.47-.19-2.67-.19-3.51,0-5.58,.04-6.2,.11-.35,0-.53-.09-.53-.27,0-.12,.06-.21,.19-.25,.13-.04,.52-.1,1.19-.19,.86-.12,1.46-.46,1.81-1.03,.35-.57,.57-2.34,.65-5.31l.26-8.51c0-.99-.07-1.94-.2-2.85-.13-.92-.34-1.51-.63-1.77-.28-.26-.74-.44-1.36-.54-.45-.06-.67-.19-.67-.37,0-.22,.11-.34,.34-.34s.87,.05,1.97,.14c1.1,.09,2.3,.14,3.61,.14"/><path d="M463.26,247.82l2.93,.06,4.49-.06c.53,0,.8,.11,.8,.32,0,.16-.15,.26-.43,.31-1.19,.15-1.93,.58-2.22,1.28-.29,.71-.44,3.32-.44,7.84,0,1.66,.04,3.53,.13,5.61,.08,2.08,.18,3.32,.29,3.73,.11,.41,.31,.74,.61,1,.3,.26,.86,.44,1.67,.55,.27,.03,.4,.13,.4,.31,0,.19-.12,.29-.37,.29l-3.99-.03-3.4,.05c-.38,0-.56-.11-.56-.32,0-.22,.15-.34,.45-.34,1-.02,1.58-.35,1.75-1,.17-.64,.26-2.69,.26-6.15s-.03-6.05-.09-8.11c-.06-2.07-.23-3.33-.52-3.79-.29-.46-.84-.75-1.64-.87-.3-.05-.45-.18-.45-.37s.11-.29,.34-.29"/><path d="M482.68,248.09c.64,.87,1.76,2.21,3.34,4.03l5.14,5.96,4.95,5.72c.11-1.94,.16-4.46,.16-7.55,0-2.32-.05-3.88-.14-4.67-.1-.79-.45-1.45-1.07-1.98-.62-.53-1.38-.8-2.3-.8-.43,0-.64-.09-.64-.27,0-.11,.04-.19,.14-.23,.09-.05,.81-.1,2.16-.14,1.35-.05,2.48-.07,3.41-.07l2.17,.02h.35c.33,0,.5,.09,.5,.28,0,.17-.15,.27-.43,.3-1.08,.12-1.86,.4-2.34,.85-.48,.44-.76,1.08-.85,1.92-.09,.84-.14,3.65-.14,8.44l-.16,8.49c0,.43-.1,.64-.32,.64-.06,0-.13-.02-.22-.07-.09-.05-.57-.59-1.44-1.62-.87-1.03-1.94-2.27-3.21-3.72-1.27-1.45-2.27-2.62-3-3.52-1.6-1.94-2.6-3.13-3.02-3.58-1.55-1.65-2.47-2.71-2.75-3.18-.18-.32-.35-.48-.5-.48-.12,0-.18,.21-.18,.63l.03,2.49c0,3.16,.09,5.68,.26,7.57,.17,1.88,.35,2.99,.54,3.32,.19,.33,.51,.65,.98,.99,.46,.33,.96,.5,1.49,.5,.71,0,1.06,.13,1.06,.39,0,.19-.2,.29-.59,.29l-7.73-.02c-.36,0-.55-.09-.55-.27,0-.21,.18-.32,.53-.32,1.32,0,2.19-.29,2.63-.88,.44-.58,.66-1.82,.66-3.72l-.13-5.64c0-3.33-.09-5.29-.27-5.89-.18-.6-.59-1.32-1.23-2.17-.64-.85-1.36-1.33-2.18-1.44-.36-.04-.55-.14-.55-.29,0-.2,.24-.31,.71-.31l4.72,.03Z"/><path d="M507.12,247.82l2.93,.06,4.49-.06c.53,0,.8,.11,.8,.32,0,.16-.15,.26-.43,.31-1.19,.15-1.93,.58-2.22,1.28-.29,.71-.44,3.32-.44,7.84,0,1.66,.04,3.53,.13,5.61,.08,2.08,.18,3.32,.29,3.73,.11,.41,.31,.74,.61,1,.3,.26,.86,.44,1.67,.55,.27,.03,.4,.13,.4,.31,0,.19-.12,.29-.37,.29l-3.99-.03-3.4,.05c-.38,0-.56-.11-.56-.32,0-.22,.15-.34,.45-.34,1-.02,1.58-.35,1.75-1,.17-.64,.26-2.69,.26-6.15s-.03-6.05-.09-8.11c-.06-2.07-.23-3.33-.52-3.79-.29-.46-.84-.75-1.64-.87-.3-.05-.45-.18-.45-.37s.11-.29,.34-.29"/><path d="M526.54,248.09c.64,.87,1.76,2.21,3.34,4.03l5.14,5.96,4.95,5.72c.11-1.94,.16-4.46,.16-7.55,0-2.32-.05-3.88-.14-4.67-.1-.79-.45-1.45-1.07-1.98-.62-.53-1.38-.8-2.3-.8-.43,0-.64-.09-.64-.27,0-.11,.04-.19,.14-.23,.09-.05,.81-.1,2.16-.14,1.35-.05,2.48-.07,3.41-.07l2.17,.02h.35c.33,0,.5,.09,.5,.28,0,.17-.14,.27-.43,.3-1.08,.12-1.86,.4-2.34,.85-.48,.44-.76,1.08-.85,1.92-.09,.84-.14,3.65-.14,8.44l-.16,8.49c0,.43-.11,.64-.32,.64-.05,0-.13-.02-.22-.07-.09-.05-.57-.59-1.44-1.62-.87-1.03-1.94-2.27-3.21-3.72-1.27-1.45-2.27-2.62-3-3.52-1.6-1.94-2.6-3.13-3.02-3.58-1.55-1.65-2.47-2.71-2.75-3.18-.18-.32-.35-.48-.5-.48-.12,0-.18,.21-.18,.63l.03,2.49c0,3.16,.09,5.68,.26,7.57,.17,1.88,.35,2.99,.54,3.32,.19,.33,.51,.65,.98,.99,.46,.33,.96,.5,1.49,.5,.71,0,1.06,.13,1.06,.39,0,.19-.2,.29-.59,.29l-7.73-.02c-.36,0-.55-.09-.55-.27,0-.21,.18-.32,.53-.32,1.32,0,2.2-.29,2.63-.88s.66-1.82,.66-3.72l-.13-5.64c0-3.33-.09-5.29-.27-5.89-.18-.6-.59-1.32-1.23-2.17-.64-.85-1.36-1.33-2.18-1.44-.36-.04-.55-.14-.55-.29,0-.2,.24-.31,.71-.31l4.72,.03Z"/><path d="M570.47,254.73c-.14,0-.28-.17-.43-.51-.88-1.93-2.03-3.42-3.47-4.47-1.44-1.05-2.98-1.57-4.6-1.57-1.34,0-2.63,.4-3.89,1.21-1.25,.81-2.28,2.06-3.07,3.74-.79,1.69-1.19,3.48-1.19,5.39,0,2.72,.81,5.07,2.44,7.05,1.63,1.98,3.66,2.97,6.1,2.97,.87,0,1.61-.13,2.22-.4,.61-.27,1.19-.65,1.73-1.16,.54-.5,.87-.88,.98-1.12,.11-.25,.17-.89,.17-1.94,0-1.76-.23-2.91-.7-3.47s-1.21-.83-2.24-.83l-.5,.02c-.31,0-.47-.1-.47-.31,0-.25,.17-.37,.51-.37l.85,.03,3.63-.05,4.45-.1c.25,0,.37,.11,.37,.34s-.14,.35-.42,.37c-.66,.07-1.21,.21-1.62,.43-.42,.22-.67,.48-.77,.77-.1,.29-.14,.78-.14,1.46,0,2.51-.06,3.88-.18,4.13-.12,.25-1.11,.81-2.99,1.69-1.88,.88-3.76,1.32-5.65,1.32-3.14,0-5.82-1.01-8.05-3.02s-3.34-4.56-3.34-7.65c0-2.12,.53-4.04,1.58-5.76,1.05-1.72,2.5-3.05,4.33-4,1.83-.95,3.7-1.42,5.59-1.42,1.78,0,3.69,.51,5.75,1.53,.58,.29,.99,.43,1.22,.43,.33,0,.59-.14,.77-.43,.16-.25,.3-.37,.43-.37,.25,0,.39,.31,.43,.93,.06,.98,.22,2.46,.47,4.47,.02,.11,.03,.2,.03,.29,0,.26-.11,.38-.34,.38"/><path d="M374.3,310.64c0-.63-.2-.99-.6-1.07-.4-.08-.91-.12-1.54-.12h-29.97v-1.13c1.26,0,1.89-.38,1.89-1.13v-28.58c0-.76-.63-1.13-1.89-1.13v-1.13h10.83v1.13c-1.17,0-1.76,.38-1.76,1.13v25.06h20.9c.63,0,1.14-.15,1.54-.44,.4-.29,.6-.69,.6-1.2h1.13v8.62h-1.13Z"/><path d="M398.6,281.74c-1.6,0-3.19,.25-4.79,.76-1.6,.5-3.03,1.23-4.31,2.17-1.28,.94-2.32,2.11-3.12,3.49-.8,1.39-1.2,2.96-1.2,4.72s.4,3.34,1.2,4.72c.8,1.38,1.83,2.55,3.12,3.49,1.28,.94,2.72,1.67,4.31,2.17,1.59,.5,3.19,.76,4.79,.76s3.19-.25,4.78-.76c1.59-.5,3.03-1.23,4.31-2.17,1.28-.94,2.32-2.11,3.12-3.49,.8-1.39,1.2-2.96,1.2-4.72s-.4-3.34-1.2-4.72c-.8-1.38-1.84-2.55-3.12-3.49-1.28-.94-2.72-1.67-4.31-2.17-1.6-.5-3.19-.76-4.78-.76m0-5.79c2.31,0,4.66,.35,7.05,1.04s4.57,1.73,6.55,3.12c1.97,1.38,3.59,3.14,4.85,5.26,1.26,2.12,1.89,4.63,1.89,7.52s-.63,5.4-1.89,7.52c-1.26,2.12-2.88,3.87-4.85,5.26-1.97,1.38-4.15,2.39-6.55,3.02-2.39,.63-4.74,.94-7.05,.94s-4.66-.31-7.05-.94c-2.39-.63-4.58-1.64-6.55-3.02-1.97-1.39-3.59-3.14-4.85-5.26-1.26-2.12-1.89-4.63-1.89-7.52s.63-5.4,1.89-7.52c1.26-2.12,2.87-3.87,4.85-5.26,1.97-1.39,4.16-2.42,6.55-3.12s4.74-1.04,7.05-1.04"/><path d="M457.16,277.46c-.84,0-1.45,.31-1.83,.91-.38,.61-.65,1.1-.82,1.48l-11.14,24.49c-.38,.84-.69,1.51-.94,2.01-.25,.51-.38,.86-.38,1.07s.05,.38,.16,.5c.1,.13,.24,.25,.41,.38v1.13h-9.63v-1.13c.38-.17,.57-.46,.57-.88,0-.21-.16-.64-.47-1.29-.31-.65-.7-1.46-1.16-2.42l-11.33-24.62c-.21-.46-.51-.8-.88-1.01-.38-.21-.92-.42-1.64-.63v-1.13h11.27v1.13c-.29,0-.58,.07-.85,.22-.27,.15-.41,.43-.41,.85,0,.46,.18,1.05,.53,1.76,.36,.71,.79,1.6,1.29,2.65l8.06,17.31,7.87-17.06c.5-1.09,.98-2.07,1.42-2.93,.44-.86,.66-1.46,.66-1.79,0-.67-.59-1.01-1.76-1.01v-1.13h11.02v1.13Z"/><path d="M491.94,283.12c0-.46-.18-.81-.54-1.04-.36-.23-.97-.35-1.86-.35h-20.4v7.81h12.34c.84,0,1.49-.11,1.95-.35,.46-.23,.69-.83,.69-1.79h1.13v9.82h-1.13c0-.96-.23-1.58-.69-1.86-.46-.27-1.11-.41-1.95-.41h-12.34v8.69h21.03c.63,0,1.14-.15,1.54-.44,.4-.29,.6-.69,.6-1.2h1.13v8.63h-1.13c0-.63-.2-.99-.6-1.07s-.91-.13-1.54-.13h-29.34v-1.13c.29,0,.56-.09,.79-.28,.23-.19,.35-.47,.35-.85v-28.58c0-.38-.12-.66-.35-.85-.23-.19-.49-.28-.79-.28v-1.13h28.71c.88,0,1.5-.14,1.86-.41,.36-.27,.54-.64,.54-1.1h1.13v8.31h-1.13Z"/><path d="M519.83,291.06c1.51,0,2.77-.11,3.78-.35,1.01-.23,1.8-.56,2.39-.98,.59-.42,1.01-.91,1.26-1.48,.25-.57,.38-1.18,.38-1.86s-.13-1.29-.38-1.86c-.25-.57-.67-1.06-1.26-1.48-.59-.42-1.39-.75-2.39-.98-1.01-.23-2.27-.35-3.78-.35h-10.89v9.32h10.89Zm1.64-14.73c2.01,0,3.84,.18,5.48,.54,1.64,.36,3.04,.92,4.22,1.7,1.18,.78,2.08,1.78,2.71,3.02,.63,1.24,.94,2.76,.94,4.56,0,2.77-.82,4.89-2.45,6.36-1.64,1.47-3.84,2.46-6.61,2.96l8.37,11.96c.29,.42,.64,.67,1.04,.76,.4,.08,.76,.13,1.1,.13v1.13h-11.77v-1.13c.38,0,.7-.06,.98-.19,.27-.13,.41-.29,.41-.5s-.08-.45-.25-.72c-.17-.27-.42-.64-.76-1.1l-6.92-9.82h-9v11.21c0,.38,.14,.66,.41,.85,.27,.19,.77,.28,1.48,.28v1.13h-10.89v-1.13c1.22,0,1.83-.38,1.83-1.13v-28.58c0-.76-.61-1.13-1.83-1.13v-1.13h21.53Z"/><path d="M543.97,299.05l.63,.32c0,.38,.08,.71,.25,1.01,.29,.5,.87,1,1.73,1.48,.86,.48,1.85,.91,2.96,1.29,1.11,.38,2.28,.68,3.49,.91,1.22,.23,2.31,.35,3.27,.35,.71,0,1.64-.05,2.77-.16,1.13-.1,2.24-.32,3.34-.66,1.09-.33,2.04-.8,2.83-1.39,.8-.59,1.2-1.36,1.2-2.33s-.37-1.68-1.1-2.14c-.73-.46-1.7-.8-2.9-1.01-1.2-.21-2.56-.35-4.09-.41-1.53-.06-3.1-.16-4.69-.28-1.6-.12-3.16-.33-4.69-.63-1.53-.29-2.9-.79-4.09-1.48-1.2-.69-2.16-1.64-2.9-2.83-.74-1.2-1.1-2.76-1.1-4.69,0-1.3,.3-2.58,.91-3.84,.61-1.26,1.54-2.37,2.8-3.34,1.26-.97,2.85-1.75,4.78-2.36,1.93-.61,4.2-.91,6.8-.91,2.22,0,4.15,.17,5.79,.5,1.64,.34,3.05,.69,4.25,1.07,1.2,.38,2.2,.74,3.02,1.07,.82,.34,1.5,.5,2.05,.5,.59,0,1.01-.13,1.26-.38l.76,.51-4.34,7.87-.63-.25c-.08-.59-.25-1.07-.5-1.45-.34-.5-.89-1-1.67-1.48-.78-.48-1.69-.91-2.74-1.29-1.05-.38-2.18-.68-3.4-.91-1.22-.23-2.43-.35-3.65-.35-.92,0-1.88,.07-2.86,.22-.99,.15-1.88,.37-2.68,.66-.8,.29-1.46,.68-1.98,1.17-.53,.48-.79,1.08-.79,1.79,0,1.01,.37,1.76,1.1,2.27,.73,.5,1.7,.88,2.9,1.13,1.2,.25,2.56,.42,4.09,.5,1.53,.08,3.09,.19,4.69,.31,1.59,.13,3.16,.35,4.69,.66,1.53,.32,2.9,.82,4.09,1.51,1.2,.69,2.16,1.63,2.9,2.8,.73,1.18,1.1,2.71,1.1,4.6,0,2.18-.58,3.97-1.73,5.35-1.15,1.38-2.59,2.48-4.31,3.27-1.72,.8-3.58,1.33-5.57,1.6-1.99,.27-3.85,.41-5.57,.41-2.39,0-4.4-.14-6.01-.41-1.62-.27-2.96-.61-4.03-1.01-1.07-.4-1.92-.76-2.55-1.07-.63-.31-1.18-.47-1.64-.47-.29,0-.57,.17-.82,.5l-.88-.5,3.46-7.62Z"/><path d="M289.42,311.89c0-.48-.15-.75-.46-.81-.3-.06-.69-.1-1.17-.1h-22.79v-.86c.96,0,1.44-.29,1.44-.86v-21.73c0-.57-.48-.86-1.44-.86v-.86h8.23v.86c-.89,0-1.34,.29-1.34,.86v19.05h15.89c.48,0,.87-.11,1.17-.33,.3-.22,.46-.53,.46-.91h.86v6.56h-.86Z"/><polygon points="269.9 262.7 268.44 262.7 268.44 248.66 282.49 248.66 282.49 250.12 269.9 250.12 269.9 262.7"/><polygon points="329.58 262.7 328.12 262.7 328.12 250.12 315.54 250.12 315.54 248.66 329.58 248.66 329.58 262.7"/><polygon points="329.58 309.45 315.54 309.45 315.54 307.99 328.12 307.99 328.12 295.4 329.58 295.4 329.58 309.45"/><polygon class="b" points="292.79 271.14 272.72 271.15 288.96 282.84 282.76 301.75 298.98 290.07 315.2 301.75 309.01 282.82 325.24 271.15 305.19 271.15 298.98 252.27 292.79 271.14"/><polygon class="c" points="277.71 272.75 290.87 282.23 285.85 297.55 298.98 288.08 312.11 297.54 307.1 282.21 320.21 272.75 304.01 272.75 298.98 257.38 293.96 272.75 277.71 272.75"/><polygon class="b" points="281.83 274.07 292.43 281.73 288.38 294.14 299.03 286.5 309.65 294.16 305.58 281.73 316.19 274.1 316.13 274.07 303.09 274.07 299.04 261.64 294.96 274.07 281.86 274.07 281.83 274.07"/></svg>