<svg width="131" height="28" viewBox="0 0 131 28" fill="none" xmlns="http://www.w3.org/2000/svg">
<path d="M34.814 5.63949L34.7928 7.32463C34.7928 8.5004 34.8097 9.15833 34.8479 9.2984C34.8819 9.43848 34.9626 9.57855 35.0814 9.72712C35.2003 9.87568 35.4549 9.96058 35.8327 9.9818C36.0365 9.99029 36.1383 10.0412 36.1383 10.1304C36.1383 10.2322 36.0662 10.2789 35.9218 10.2789C35.8667 10.2789 35.7266 10.2662 35.4931 10.245C35.022 10.1983 34.6018 10.1771 34.2367 10.1771C33.9269 10.1771 33.4981 10.194 32.9463 10.228L32.5643 10.245C32.42 10.245 32.3478 10.1983 32.3478 10.1091C32.3478 10.02 32.4539 9.97331 32.6662 9.97331C32.9591 9.97331 33.1671 9.89266 33.2944 9.72712C33.4217 9.56157 33.5024 9.1456 33.5448 8.47494C33.583 7.80428 33.6043 6.91714 33.6043 5.81777C33.6043 4.78206 33.5873 3.96284 33.5491 3.36434C33.5109 2.76584 33.4599 2.37533 33.3963 2.18856C33.3326 2.0018 33.2307 1.87021 33.0991 1.78956C32.9676 1.70891 32.7171 1.65798 32.3478 1.63675C32.2035 1.62826 32.1313 1.58157 32.1313 1.50517C32.1313 1.43301 32.195 1.39481 32.3224 1.38632C33.4599 1.29718 35.6077 1.25049 38.7658 1.25049C39.3049 1.25049 39.602 1.25898 39.6487 1.27596C39.6954 1.29294 39.7293 1.32265 39.7506 1.36509C39.7718 1.40754 39.8312 1.72165 39.9331 2.30741C40.0349 2.89318 40.0859 3.1988 40.0859 3.22851C40.0859 3.32189 40.0434 3.37283 39.9628 3.37283C39.9034 3.37283 39.8482 3.32614 39.793 3.237C39.1521 2.12489 38.1121 1.56459 36.6689 1.56459C36.1723 1.56459 35.7733 1.58582 35.4634 1.62826C35.1578 1.67071 34.9795 1.72165 34.9286 1.78532C34.8777 1.84474 34.8479 2.13338 34.831 2.64274C34.814 3.15211 34.8055 4.03924 34.8055 5.3084C35.1663 5.32538 35.4125 5.33387 35.5483 5.33387C36.202 5.33387 36.6604 5.1938 36.9151 4.91365C37.174 4.6335 37.3056 4.34486 37.3226 4.04349C37.3311 3.84399 37.382 3.74212 37.4796 3.74212C37.5773 3.74212 37.6282 3.81003 37.6282 3.94586C37.6282 3.99255 37.624 4.04773 37.6155 4.11565C37.5815 4.37882 37.5645 5.05372 37.5645 6.14036V6.92987C37.5645 7.12088 37.5094 7.21427 37.3948 7.21427C37.3014 7.21427 37.2504 7.14211 37.2462 7.00203C37.2335 6.59454 37.1019 6.25921 36.8599 5.99604C36.6137 5.73287 36.1298 5.60553 35.4082 5.60553C35.2894 5.60553 35.0899 5.61402 34.8097 5.62675" fill="white"/>
<path d="M34.814 5.63949L34.7928 7.32463C34.7928 8.5004 34.8097 9.15833 34.8479 9.2984C34.8819 9.43848 34.9626 9.57855 35.0814 9.72712C35.2003 9.87568 35.4549 9.96057 35.8327 9.9818C36.0365 9.99029 36.1383 10.0412 36.1383 10.1304C36.1383 10.2322 36.0662 10.2789 35.9218 10.2789C35.8667 10.2789 35.7266 10.2662 35.4931 10.245C35.022 10.1983 34.6018 10.1771 34.2367 10.1771C33.9269 10.1771 33.4981 10.194 32.9463 10.228L32.5643 10.245C32.42 10.245 32.3478 10.1983 32.3478 10.1091C32.3478 10.02 32.4539 9.97331 32.6662 9.97331C32.9591 9.97331 33.1671 9.89266 33.2944 9.72712C33.4217 9.56157 33.5024 9.1456 33.5448 8.47494C33.583 7.80428 33.6043 6.91714 33.6043 5.81777C33.6043 4.78206 33.5873 3.96284 33.5491 3.36434C33.5109 2.76584 33.4599 2.37533 33.3963 2.18856C33.3326 2.0018 33.2307 1.87021 33.0991 1.78956C32.9676 1.70891 32.7171 1.65798 32.3478 1.63675C32.2035 1.62826 32.1313 1.58157 32.1313 1.50517C32.1313 1.43301 32.195 1.39481 32.3224 1.38632C33.4599 1.29718 35.6077 1.25049 38.7658 1.25049C39.3049 1.25049 39.602 1.25898 39.6487 1.27596C39.6954 1.29294 39.7293 1.32265 39.7506 1.36509C39.7718 1.40754 39.8312 1.72165 39.9331 2.30741C40.0349 2.89318 40.0859 3.1988 40.0859 3.22851C40.0859 3.32189 40.0434 3.37283 39.9628 3.37283C39.9034 3.37283 39.8482 3.32614 39.793 3.237C39.1521 2.12489 38.1121 1.56459 36.6689 1.56459C36.1723 1.56459 35.7733 1.58582 35.4634 1.62826C35.1578 1.67071 34.9795 1.72165 34.9286 1.78532C34.8777 1.84474 34.8479 2.13338 34.831 2.64274C34.814 3.15211 34.8055 4.03924 34.8055 5.3084C35.1663 5.32538 35.4125 5.33387 35.5483 5.33387C36.202 5.33387 36.6604 5.1938 36.9151 4.91365C37.174 4.6335 37.3056 4.34486 37.3226 4.04349C37.3311 3.84399 37.382 3.74212 37.4796 3.74212C37.5773 3.74212 37.6282 3.81003 37.6282 3.94586C37.6282 3.99255 37.624 4.04773 37.6155 4.11565C37.5815 4.37882 37.5645 5.05372 37.5645 6.14036V6.92987C37.5645 7.12088 37.5094 7.21427 37.3948 7.21427C37.3014 7.21427 37.2504 7.14211 37.2462 7.00203C37.2335 6.59454 37.1019 6.25921 36.8599 5.99604C36.6137 5.73287 36.1298 5.60553 35.4082 5.60553C35.2894 5.60553 35.0899 5.61402 34.8097 5.62675" stroke="white" stroke-width="0.260957"/>
<path d="M42.0348 1.1875L43.2784 1.21297L45.1843 1.1875C45.4135 1.1875 45.5281 1.23419 45.5281 1.32333C45.5281 1.39124 45.4645 1.43369 45.3456 1.45491C44.8405 1.51859 44.5264 1.70111 44.4033 1.99823C44.2802 2.29961 44.2165 3.40747 44.2165 5.32606C44.2165 6.03068 44.2335 6.82444 44.2717 7.70733C44.3057 8.59022 44.3481 9.11656 44.3948 9.2906C44.4415 9.46463 44.5264 9.6047 44.6537 9.71507C44.7811 9.82543 45.0188 9.90183 45.3626 9.94852C45.4772 9.96126 45.5324 10.0037 45.5324 10.0801C45.5324 10.1608 45.4814 10.2032 45.3753 10.2032L43.6817 10.1905L42.2385 10.2117C42.0772 10.2117 42.0008 10.165 42.0008 10.0759C42.0008 9.98672 42.0645 9.93154 42.1918 9.93154C42.6163 9.92305 42.8625 9.78298 42.9346 9.50708C43.0068 9.23542 43.045 8.36526 43.045 6.8966C43.045 5.42794 43.0323 4.32856 43.0068 3.45416C42.9813 2.57976 42.9092 2.04068 42.7861 1.84543C42.663 1.65017 42.4295 1.52707 42.0899 1.47614C41.9626 1.45491 41.8989 1.39973 41.8989 1.31909C41.8989 1.23844 41.9456 1.19599 42.0432 1.19599" fill="white"/>
<path d="M42.0348 1.1875L43.2784 1.21297L45.1843 1.1875C45.4135 1.1875 45.5281 1.23419 45.5281 1.32333C45.5281 1.39124 45.4645 1.43369 45.3456 1.45491C44.8405 1.51859 44.5264 1.70111 44.4033 1.99823C44.2802 2.29961 44.2165 3.40747 44.2165 5.32606C44.2165 6.03068 44.2335 6.82444 44.2717 7.70733C44.3057 8.59022 44.3481 9.11656 44.3948 9.2906C44.4415 9.46463 44.5264 9.6047 44.6537 9.71506C44.7811 9.82543 45.0188 9.90183 45.3626 9.94852C45.4772 9.96126 45.5324 10.0037 45.5324 10.0801C45.5324 10.1608 45.4814 10.2032 45.3753 10.2032L43.6817 10.1905L42.2385 10.2117C42.0772 10.2117 42.0008 10.165 42.0008 10.0759C42.0008 9.98672 42.0645 9.93154 42.1918 9.93154C42.6163 9.92305 42.8625 9.78298 42.9346 9.50708C43.0068 9.23542 43.045 8.36526 43.045 6.8966C43.045 5.42794 43.0323 4.32856 43.0068 3.45416C42.9813 2.57976 42.9092 2.04068 42.7861 1.84543C42.663 1.65017 42.4295 1.52707 42.0899 1.47614C41.9626 1.45491 41.8989 1.39973 41.8989 1.31909C41.8989 1.23844 41.9456 1.19599 42.0432 1.19599" stroke="white" stroke-width="0.260957"/>
<path d="M49.731 1.30151C50.0026 1.6708 50.478 2.23959 51.1487 3.01212L53.3305 5.54195L55.4316 7.96991C55.4783 7.14644 55.4995 6.07678 55.4995 4.76517C55.4995 3.78041 55.4783 3.11824 55.4401 2.78291C55.3976 2.44758 55.2491 2.16743 54.9859 1.94246C54.7227 1.71749 54.4001 1.60289 54.0096 1.60289C53.8271 1.60289 53.738 1.56468 53.738 1.48828C53.738 1.44159 53.7549 1.40763 53.7974 1.39065C53.8356 1.36943 54.1412 1.34821 54.7142 1.33123C55.2873 1.31 55.7669 1.30151 56.1617 1.30151L57.0828 1.31H57.2313C57.3714 1.31 57.4436 1.34821 57.4436 1.42885C57.4436 1.50101 57.3799 1.54346 57.261 1.55619C56.8026 1.60713 56.4715 1.72598 56.2678 1.91699C56.064 2.10376 55.9452 2.37542 55.907 2.73197C55.8688 3.08852 55.8476 4.28128 55.8476 6.31448L55.7797 9.91822C55.7797 10.1007 55.7372 10.1899 55.6438 10.1899C55.6184 10.1899 55.5886 10.1814 55.5504 10.1602C55.5122 10.1389 55.3085 9.90973 54.9392 9.47253C54.5699 9.03532 54.1157 8.50898 53.5767 7.8935C53.0376 7.27803 52.6131 6.7814 52.3033 6.39938C51.6241 5.57591 51.1996 5.07079 51.0214 4.87978C50.3634 4.17941 49.9729 3.72947 49.8541 3.52997C49.7777 3.39414 49.7055 3.32623 49.6418 3.32623C49.5909 3.32623 49.5654 3.41536 49.5654 3.59364L49.5782 4.65057C49.5782 5.99189 49.6121 7.06155 49.6885 7.86379C49.7607 8.66179 49.8371 9.13295 49.9177 9.27303C49.9984 9.4131 50.1342 9.54893 50.3337 9.69325C50.529 9.83332 50.7412 9.90548 50.9662 9.90548C51.2676 9.90548 51.4161 9.96066 51.4161 10.071C51.4161 10.1517 51.3312 10.1941 51.1657 10.1941L47.8845 10.1856C47.7317 10.1856 47.6511 10.1474 47.6511 10.071C47.6511 9.98189 47.7275 9.9352 47.8761 9.9352C48.4364 9.9352 48.8056 9.8121 48.9924 9.56166C49.1792 9.31547 49.2726 8.78913 49.2726 7.98264L49.2174 5.58864C49.2174 4.17516 49.1792 3.34321 49.1028 3.08852C49.0264 2.83384 48.8523 2.52823 48.5807 2.16743C48.309 1.80663 48.0034 1.60289 47.6553 1.55619C47.5025 1.53922 47.4219 1.49677 47.4219 1.4331C47.4219 1.34821 47.5237 1.30151 47.7232 1.30151L49.7267 1.31425V1.30151H49.731Z" fill="white" stroke="white" stroke-width="0.260957"/>
<path d="M66.3982 1.33529C66.5298 1.84465 66.6614 2.55776 66.7888 3.47886C66.7675 3.51706 66.7421 3.53404 66.7166 3.53404C66.6869 3.53404 66.6529 3.51706 66.6147 3.47886C66.3006 2.97374 65.9993 2.59172 65.7149 2.3243C65.4305 2.06113 65.1418 1.87437 64.8532 1.75976C64.5645 1.6494 64.0679 1.59422 63.3633 1.59422C62.7011 1.59422 62.1748 1.63242 61.7885 1.70882C61.7503 1.75552 61.7333 1.84041 61.7333 1.95926C61.7333 1.98897 61.7333 2.0484 61.7206 2.12905C61.6739 2.48985 61.6527 3.47886 61.6527 5.08335C61.6527 5.15126 61.6527 5.24464 61.6654 5.36774C62.0135 5.38047 62.247 5.38896 62.3743 5.38896C62.9473 5.38896 63.3633 5.30407 63.618 5.13004C63.8769 4.96025 64.0976 4.59096 64.2886 4.02218C64.3184 3.92455 64.365 3.87786 64.4245 3.87786C64.5094 3.87786 64.5518 3.94153 64.5518 4.07736L64.5263 4.34902C64.4881 4.70981 64.4712 5.0791 64.4712 5.46112C64.4712 6.08085 64.4839 6.6369 64.5051 7.13353C64.5051 7.28634 64.4627 7.36698 64.382 7.36698C64.3184 7.36698 64.2802 7.3118 64.2589 7.20144C64.1613 6.66661 63.9618 6.28035 63.6562 6.04264C63.3506 5.80494 62.6884 5.68609 61.6654 5.68609C61.6527 6.01718 61.6442 6.55625 61.6442 7.29482C61.6442 8.25412 61.6782 8.86111 61.7461 9.12004C61.814 9.37896 61.9795 9.58695 62.2385 9.73552C62.4974 9.88832 62.9388 9.96473 63.5543 9.96473C65.3243 9.96473 66.4662 9.35349 66.9798 8.13527C67.0434 7.98671 67.1071 7.9103 67.175 7.9103C67.2472 7.9103 67.2811 7.96124 67.2811 8.05887C67.2811 8.11405 67.2684 8.17347 67.2472 8.23714C67.2217 8.32204 67.1538 8.64463 67.0477 9.20493C67.0265 9.32378 66.9373 9.67609 66.7888 10.2703H63.9321C63.5246 10.2661 62.9219 10.2449 62.1281 10.2109C61.3343 10.177 60.6297 10.16 60.0227 10.1557C59.4115 10.1557 59.0932 10.143 59.0634 10.1175C59.038 10.0963 59.021 10.0708 59.021 10.0411C59.021 9.95199 59.0974 9.9053 59.246 9.9053C59.7511 9.9053 60.0822 9.76947 60.2435 9.50206C60.4048 9.23464 60.4812 8.58096 60.4812 7.54526L60.4727 6.14876L60.4939 4.8414C60.4939 4.57823 60.4769 4.0816 60.4515 3.34727C60.4217 2.61294 60.3963 2.19696 60.3708 2.09085C60.3453 1.98473 60.2732 1.88286 60.1586 1.78098C60.044 1.67911 59.785 1.57724 59.3903 1.47112C59.2714 1.44141 59.212 1.39047 59.212 1.32256C59.212 1.24191 59.2927 1.19946 59.4497 1.19946L60.842 1.27587C61.3343 1.29709 62.5398 1.30982 64.4627 1.30982C65.7276 1.30982 66.3728 1.30982 66.3982 1.31831" fill="white"/>
<path d="M66.3982 1.33529C66.5298 1.84465 66.6614 2.55776 66.7888 3.47886C66.7675 3.51706 66.7421 3.53404 66.7166 3.53404C66.6869 3.53404 66.6529 3.51706 66.6147 3.47886C66.3006 2.97374 65.9993 2.59172 65.7149 2.3243C65.4305 2.06113 65.1418 1.87437 64.8532 1.75976C64.5645 1.6494 64.0679 1.59422 63.3633 1.59422C62.7011 1.59422 62.1748 1.63242 61.7885 1.70882C61.7503 1.75552 61.7333 1.84041 61.7333 1.95926C61.7333 1.98897 61.7333 2.0484 61.7206 2.12905C61.6739 2.48985 61.6527 3.47886 61.6527 5.08335C61.6527 5.15126 61.6527 5.24464 61.6654 5.36774C62.0135 5.38047 62.247 5.38896 62.3743 5.38896C62.9473 5.38896 63.3633 5.30407 63.618 5.13004C63.8769 4.96025 64.0976 4.59096 64.2886 4.02218C64.3184 3.92455 64.365 3.87786 64.4245 3.87786C64.5094 3.87786 64.5518 3.94153 64.5518 4.07736L64.5263 4.34902C64.4881 4.70981 64.4712 5.0791 64.4712 5.46112C64.4712 6.08085 64.4839 6.6369 64.5051 7.13353C64.5051 7.28634 64.4627 7.36698 64.382 7.36698C64.3184 7.36698 64.2802 7.3118 64.2589 7.20144C64.1613 6.66661 63.9618 6.28035 63.6562 6.04264C63.3506 5.80494 62.6884 5.68609 61.6654 5.68609C61.6527 6.01718 61.6442 6.55625 61.6442 7.29482C61.6442 8.25412 61.6782 8.86111 61.7461 9.12004C61.814 9.37896 61.9795 9.58695 62.2385 9.73552C62.4974 9.88832 62.9388 9.96473 63.5543 9.96473C65.3243 9.96473 66.4662 9.3535 66.9798 8.13527C67.0434 7.98671 67.1071 7.9103 67.175 7.9103C67.2472 7.9103 67.2811 7.96124 67.2811 8.05887C67.2811 8.11405 67.2684 8.17347 67.2472 8.23714C67.2217 8.32204 67.1538 8.64463 67.0477 9.20493C67.0265 9.32378 66.9373 9.67609 66.7888 10.2703H63.9321C63.5246 10.2661 62.9219 10.2449 62.1281 10.2109C61.3343 10.177 60.6297 10.16 60.0227 10.1557C59.4115 10.1557 59.0932 10.143 59.0634 10.1175C59.038 10.0963 59.021 10.0708 59.021 10.0411C59.021 9.952 59.0974 9.9053 59.246 9.9053C59.7511 9.9053 60.0822 9.76947 60.2435 9.50206C60.4048 9.23464 60.4812 8.58096 60.4812 7.54526L60.4727 6.14876L60.4939 4.8414C60.4939 4.57823 60.4769 4.0816 60.4515 3.34727C60.4217 2.61294 60.3963 2.19696 60.3708 2.09085C60.3453 1.98473 60.2732 1.88286 60.1586 1.78098C60.044 1.67911 59.785 1.57724 59.3903 1.47112C59.2714 1.44141 59.212 1.39047 59.212 1.32256C59.212 1.24191 59.2927 1.19946 59.4497 1.19946L60.842 1.27587C61.3343 1.29709 62.5398 1.30982 64.4627 1.30982C65.7276 1.30982 66.3728 1.30982 66.3982 1.31831" stroke="white" stroke-width="0.260957"/>
<path d="M76.3487 7.85122C76.3487 8.44972 76.3911 8.87843 76.4676 9.13736C76.5482 9.39204 76.718 9.60428 76.9812 9.76982C77.2443 9.93536 77.6603 10.0203 78.2376 10.0203C79.0653 10.0203 79.736 9.825 80.2496 9.43449C80.7632 9.04398 81.1622 8.52188 81.4508 7.87244C81.7395 7.22301 81.8838 6.53113 81.8838 5.80104C81.8838 4.71865 81.5527 3.73813 80.8948 2.86372C80.2368 1.98507 79.2096 1.54787 77.8174 1.54787C77.1976 1.54787 76.8368 1.56909 76.735 1.6073C76.6331 1.64974 76.5822 1.76859 76.5822 1.96809C76.5822 2.14637 76.5652 2.46048 76.5355 2.91466C76.4888 3.57683 76.4591 4.09892 76.4463 4.46821L76.3869 6.34436C76.3614 7.22301 76.3445 7.72388 76.3445 7.85122M76.5822 1.26348L77.9872 1.23801C79.7657 1.23801 81.107 1.67097 82.0154 2.53264C82.9237 3.39855 83.3779 4.48519 83.3779 5.7968C83.3779 6.73063 83.1614 7.53712 82.7242 8.229C82.287 8.91664 81.7437 9.43873 81.0858 9.7868C80.4321 10.1391 79.5577 10.3131 78.4668 10.3131C78.2206 10.3131 77.9107 10.3004 77.533 10.2707C76.8581 10.2155 76.4845 10.19 76.3996 10.19C74.9098 10.19 74.0311 10.207 73.7679 10.2367C73.6194 10.2367 73.543 10.1985 73.543 10.1221C73.543 10.0712 73.5684 10.033 73.6236 10.016C73.6788 9.99903 73.8443 9.97356 74.1287 9.93536C74.4938 9.88442 74.7485 9.7401 74.897 9.49816C75.0456 9.25621 75.139 8.5049 75.1729 7.24423L75.2833 3.63201C75.2833 3.21179 75.2536 2.80854 75.1984 2.42227C75.1432 2.03176 75.0541 1.78133 74.931 1.67097C74.8121 1.5606 74.6169 1.4842 74.3537 1.44175C74.1627 1.41629 74.0693 1.3611 74.0693 1.2847C74.0693 1.19132 74.116 1.14038 74.2136 1.14038C74.3113 1.14038 74.5829 1.1616 75.0498 1.19981C75.5167 1.23801 76.0261 1.25923 76.5822 1.25923" fill="white"/>
<path d="M76.3487 7.85122C76.3487 8.44972 76.3911 8.87843 76.4676 9.13736C76.5482 9.39204 76.718 9.60428 76.9812 9.76982C77.2443 9.93536 77.6603 10.0203 78.2376 10.0203C79.0653 10.0203 79.736 9.825 80.2496 9.43449C80.7632 9.04398 81.1622 8.52188 81.4508 7.87244C81.7395 7.22301 81.8838 6.53113 81.8838 5.80104C81.8838 4.71865 81.5527 3.73813 80.8948 2.86372C80.2368 1.98507 79.2096 1.54787 77.8174 1.54787C77.1976 1.54787 76.8368 1.56909 76.735 1.6073C76.6331 1.64974 76.5822 1.76859 76.5822 1.96809C76.5822 2.14637 76.5652 2.46048 76.5355 2.91466C76.4888 3.57683 76.4591 4.09892 76.4463 4.46821L76.3869 6.34436C76.3614 7.22301 76.3445 7.72388 76.3445 7.85122M76.5822 1.26348L77.9872 1.23801C79.7657 1.23801 81.107 1.67097 82.0154 2.53264C82.9237 3.39855 83.3779 4.48519 83.3779 5.7968C83.3779 6.73063 83.1614 7.53712 82.7242 8.229C82.287 8.91664 81.7437 9.43873 81.0858 9.7868C80.4321 10.1391 79.5577 10.3131 78.4668 10.3131C78.2206 10.3131 77.9107 10.3004 77.533 10.2707C76.8581 10.2155 76.4845 10.19 76.3996 10.19C74.9098 10.19 74.0311 10.207 73.7679 10.2367C73.6194 10.2367 73.543 10.1985 73.543 10.1221C73.543 10.0712 73.5684 10.033 73.6236 10.016C73.6788 9.99903 73.8443 9.97356 74.1287 9.93536C74.4938 9.88442 74.7485 9.7401 74.897 9.49816C75.0456 9.25621 75.139 8.5049 75.1729 7.24423L75.2833 3.63201C75.2833 3.21179 75.2536 2.80854 75.1984 2.42227C75.1432 2.03176 75.0541 1.78133 74.931 1.67097C74.8121 1.5606 74.6169 1.4842 74.3537 1.44175C74.1627 1.41629 74.0693 1.3611 74.0693 1.2847C74.0693 1.19132 74.116 1.14038 74.2136 1.14038C74.3113 1.14038 74.5829 1.1616 75.0498 1.19981C75.5167 1.23801 76.0261 1.25923 76.5822 1.25923" stroke="white" stroke-width="0.260957"/>
<path d="M85.3046 1.1875L86.5483 1.21297L88.4542 1.1875C88.6791 1.1875 88.7938 1.23419 88.7938 1.32333C88.7938 1.39124 88.7301 1.43369 88.6112 1.45491C88.1061 1.51859 87.792 1.70111 87.6689 1.99823C87.5458 2.29961 87.4821 3.40747 87.4821 5.32606C87.4821 6.03068 87.4991 6.82444 87.5373 7.70733C87.5713 8.59022 87.6137 9.11656 87.6604 9.2906C87.7071 9.46463 87.792 9.6047 87.9194 9.71507C88.0467 9.82543 88.2844 9.90183 88.6282 9.94852C88.7428 9.96126 88.798 10.0037 88.798 10.0801C88.798 10.1608 88.7471 10.2032 88.6409 10.2032L86.9473 10.1905L85.5041 10.2117C85.3428 10.2117 85.2664 10.165 85.2664 10.0759C85.2664 9.98672 85.3301 9.93154 85.4574 9.93154C85.8819 9.92305 86.1281 9.78298 86.2003 9.50708C86.2724 9.23542 86.3106 8.36526 86.3106 6.8966C86.3106 5.42794 86.2979 4.32856 86.2724 3.45416C86.2469 2.57551 86.1748 2.04068 86.0517 1.84543C85.9286 1.65017 85.6951 1.52707 85.3556 1.47614C85.2282 1.45491 85.1646 1.39973 85.1646 1.31909C85.1646 1.23844 85.2112 1.19599 85.3089 1.19599" fill="white"/>
<path d="M85.3046 1.1875L86.5483 1.21297L88.4542 1.1875C88.6791 1.1875 88.7938 1.23419 88.7938 1.32333C88.7938 1.39124 88.7301 1.43369 88.6112 1.45491C88.1061 1.51859 87.792 1.70111 87.6689 1.99823C87.5458 2.29961 87.4821 3.40747 87.4821 5.32606C87.4821 6.03068 87.4991 6.82444 87.5373 7.70733C87.5713 8.59022 87.6137 9.11656 87.6604 9.2906C87.7071 9.46463 87.792 9.6047 87.9194 9.71506C88.0467 9.82543 88.2844 9.90183 88.6282 9.94852C88.7428 9.96126 88.798 10.0037 88.798 10.0801C88.798 10.1608 88.7471 10.2032 88.6409 10.2032L86.9473 10.1905L85.5041 10.2117C85.3428 10.2117 85.2664 10.165 85.2664 10.0759C85.2664 9.98672 85.3301 9.93154 85.4574 9.93154C85.8819 9.92305 86.1281 9.78298 86.2003 9.50708C86.2724 9.23542 86.3106 8.36526 86.3106 6.8966C86.3106 5.42794 86.2979 4.32856 86.2724 3.45416C86.2469 2.57551 86.1748 2.04068 86.0517 1.84543C85.9286 1.65017 85.6951 1.52707 85.3556 1.47614C85.2282 1.45491 85.1646 1.39973 85.1646 1.31909C85.1646 1.23844 85.2112 1.19599 85.3089 1.19599" stroke="white" stroke-width="0.260957"/>
<path d="M93.2852 1.30151C93.5568 1.6708 94.0322 2.23959 94.7029 3.01212L96.8847 5.54195L98.9858 7.96991C99.0325 7.14644 99.0537 6.07678 99.0537 4.76517C99.0537 3.78041 99.0325 3.11824 98.9943 2.78291C98.9518 2.44758 98.8033 2.16743 98.5401 1.94246C98.2769 1.71749 97.9543 1.60289 97.5638 1.60289C97.3813 1.60289 97.2922 1.56468 97.2922 1.48828C97.2922 1.44159 97.3091 1.40763 97.3516 1.39065C97.3898 1.36943 97.6954 1.34821 98.2684 1.33123C98.8415 1.31 99.3211 1.30151 99.7159 1.30151L100.637 1.31H100.786C100.926 1.31 100.998 1.34821 100.998 1.42885C100.998 1.50101 100.934 1.54346 100.815 1.55619C100.357 1.60713 100.026 1.72598 99.822 1.91699C99.6182 2.10376 99.4994 2.37542 99.4612 2.73197C99.423 3.08852 99.4018 4.28128 99.4018 6.31448L99.3338 9.91822C99.3338 10.1007 99.2914 10.1899 99.198 10.1899C99.1726 10.1899 99.1428 10.1814 99.1046 10.1602C99.0664 10.1389 98.8627 9.90973 98.4934 9.47253C98.1241 9.03532 97.6699 8.50898 97.1309 7.8935C96.5918 7.27803 96.1673 6.7814 95.8575 6.39938C95.1783 5.57591 94.7538 5.07079 94.5756 4.87978C93.9176 4.17941 93.5271 3.72947 93.4083 3.52997C93.3319 3.39414 93.2597 3.32623 93.196 3.32623C93.1451 3.32623 93.1196 3.41536 93.1196 3.59364L93.1324 4.65057C93.1324 5.99189 93.1706 7.06155 93.2427 7.86379C93.3149 8.66179 93.3913 9.13295 93.4719 9.27303C93.5526 9.4131 93.6884 9.54893 93.8879 9.69325C94.0832 9.83332 94.2954 9.90548 94.5204 9.90548C94.8218 9.90548 94.9703 9.96066 94.9703 10.071C94.9703 10.1517 94.8854 10.1941 94.7199 10.1941L91.4387 10.1856C91.2859 10.1856 91.2053 10.1474 91.2053 10.071C91.2053 9.98189 91.2817 9.9352 91.4303 9.9352C91.9905 9.9352 92.3598 9.8121 92.5466 9.56166C92.7334 9.31547 92.8268 8.78913 92.8268 7.98264L92.7716 5.58864C92.7716 4.17516 92.7334 3.34321 92.657 3.08852C92.5806 2.83384 92.4065 2.52823 92.1349 2.16743C91.8632 1.80663 91.5576 1.60289 91.2095 1.55619C91.0567 1.53922 90.9761 1.49677 90.9761 1.4331C90.9761 1.34821 91.0779 1.30151 91.2774 1.30151L93.2809 1.31425V1.30151H93.2852Z" fill="white" stroke="white" stroke-width="0.260957"/>
<path d="M103.133 1.1875L104.377 1.21297L106.283 1.1875C106.508 1.1875 106.622 1.23419 106.622 1.32333C106.622 1.39124 106.559 1.43369 106.44 1.45491C105.935 1.51859 105.621 1.70111 105.498 1.99823C105.374 2.29961 105.311 3.40747 105.311 5.32606C105.311 6.03068 105.328 6.82444 105.366 7.70733C105.4 8.59022 105.442 9.11656 105.489 9.2906C105.536 9.46463 105.621 9.6047 105.748 9.71507C105.875 9.82543 106.113 9.90183 106.457 9.94852C106.571 9.96126 106.627 10.0037 106.627 10.0801C106.627 10.1608 106.576 10.2032 106.47 10.2032L104.776 10.1905L103.333 10.2117C103.171 10.2117 103.095 10.165 103.095 10.0759C103.095 9.98672 103.159 9.93154 103.286 9.93154C103.711 9.92305 103.957 9.78298 104.029 9.50708C104.101 9.23542 104.139 8.36526 104.139 6.8966C104.139 5.42794 104.126 4.32856 104.101 3.45416C104.076 2.57551 104.003 2.04068 103.88 1.84543C103.757 1.65017 103.524 1.52707 103.184 1.47614C103.057 1.45491 102.993 1.39973 102.993 1.31909C102.993 1.23844 103.04 1.19599 103.137 1.19599" fill="white"/>
<path d="M103.133 1.1875L104.377 1.21297L106.283 1.1875C106.508 1.1875 106.622 1.23419 106.622 1.32333C106.622 1.39124 106.559 1.43369 106.44 1.45491C105.935 1.51859 105.621 1.70111 105.498 1.99823C105.374 2.29961 105.311 3.40747 105.311 5.32606C105.311 6.03068 105.328 6.82444 105.366 7.70733C105.4 8.59022 105.442 9.11656 105.489 9.2906C105.536 9.46463 105.621 9.6047 105.748 9.71506C105.875 9.82543 106.113 9.90183 106.457 9.94852C106.571 9.96126 106.627 10.0037 106.627 10.0801C106.627 10.1608 106.576 10.2032 106.47 10.2032L104.776 10.1905L103.333 10.2117C103.171 10.2117 103.095 10.165 103.095 10.0759C103.095 9.98672 103.159 9.93154 103.286 9.93154C103.711 9.92305 103.957 9.78298 104.029 9.50708C104.101 9.23542 104.139 8.36526 104.139 6.8966C104.139 5.42794 104.126 4.32856 104.101 3.45416C104.076 2.57551 104.003 2.04068 103.88 1.84543C103.757 1.65017 103.524 1.52707 103.184 1.47614C103.057 1.45491 102.993 1.39973 102.993 1.31909C102.993 1.23844 103.04 1.19599 103.137 1.19599" stroke="white" stroke-width="0.260957"/>
<path d="M111.376 1.30151C111.648 1.6708 112.124 2.23959 112.794 3.01212L114.976 5.54195L117.077 7.96991C117.124 7.14644 117.145 6.07678 117.145 4.76517C117.145 3.78041 117.124 3.11824 117.086 2.78291C117.043 2.44758 116.895 2.16743 116.631 1.94246C116.368 1.71749 116.046 1.60289 115.655 1.60289C115.473 1.60289 115.383 1.56468 115.383 1.48828C115.383 1.44159 115.4 1.40763 115.443 1.39065C115.481 1.36943 115.787 1.34821 116.36 1.33123C116.933 1.31 117.412 1.30151 117.807 1.30151L118.728 1.31H118.877C119.017 1.31 119.089 1.34821 119.089 1.42885C119.089 1.50101 119.03 1.54346 118.907 1.55619C118.448 1.60713 118.117 1.72598 117.913 1.91699C117.71 2.10376 117.591 2.37542 117.552 2.73197C117.514 3.08852 117.493 4.28128 117.493 6.31448L117.425 9.91822C117.425 10.1007 117.378 10.1899 117.289 10.1899C117.268 10.1899 117.234 10.1814 117.196 10.1602C117.158 10.1389 116.954 9.90973 116.585 9.47253C116.215 9.03532 115.761 8.50898 115.222 7.8935C114.683 7.27803 114.259 6.7814 113.949 6.39938C113.27 5.57591 112.845 5.07079 112.667 4.87978C112.009 4.17941 111.618 3.72947 111.5 3.52997C111.423 3.39414 111.351 3.32623 111.287 3.32623C111.236 3.32623 111.211 3.41536 111.211 3.59364L111.224 4.65057C111.224 5.99189 111.262 7.06155 111.334 7.86379C111.406 8.66179 111.483 9.13295 111.563 9.27303C111.644 9.4131 111.78 9.54893 111.979 9.69325C112.174 9.83332 112.387 9.90548 112.612 9.90548C112.913 9.90548 113.062 9.96066 113.062 10.071C113.062 10.1517 112.977 10.1941 112.811 10.1941L109.53 10.1856C109.377 10.1856 109.297 10.1474 109.297 10.071C109.297 9.98189 109.373 9.9352 109.522 9.9352C110.082 9.9352 110.455 9.8121 110.638 9.56166C110.82 9.31123 110.918 8.78913 110.918 7.98264L110.863 5.58864C110.863 4.17516 110.825 3.34321 110.748 3.08852C110.672 2.83384 110.498 2.52823 110.226 2.16743C109.955 1.80663 109.649 1.60289 109.301 1.55619C109.148 1.53922 109.067 1.49677 109.067 1.4331C109.067 1.34821 109.169 1.30151 109.369 1.30151L111.372 1.31425V1.30151H111.376Z" fill="white" stroke="white" stroke-width="0.260957"/>
<path d="M128.941 4.12066C128.882 4.12066 128.823 4.0485 128.759 3.90418C128.385 3.08496 127.897 2.4525 127.286 2.00681C126.675 1.56112 126.021 1.3404 125.333 1.3404C124.765 1.3404 124.217 1.51018 123.682 1.854C123.152 2.19782 122.714 2.72841 122.379 3.44151C122.044 4.15886 121.874 4.91866 121.874 5.7294C121.874 6.88395 122.218 7.88145 122.91 8.7219C123.602 9.56234 124.463 9.98257 125.499 9.98257C125.868 9.98257 126.182 9.92739 126.441 9.81278C126.7 9.69817 126.946 9.53688 127.176 9.3204C127.405 9.10816 127.545 8.94687 127.592 8.84499C127.638 8.73888 127.664 8.46722 127.664 8.02152C127.664 7.27446 127.566 6.78632 127.367 6.54862C127.167 6.31092 126.853 6.19631 126.416 6.19631L126.204 6.2048C126.072 6.2048 126.004 6.16235 126.004 6.07322C126.004 5.9671 126.076 5.91616 126.221 5.91616L126.581 5.9289L128.122 5.90767L130.011 5.86523C130.117 5.86523 130.168 5.91192 130.168 6.00955C130.168 6.10717 130.109 6.15811 129.99 6.1666C129.71 6.19631 129.476 6.25574 129.302 6.34912C129.124 6.4425 129.018 6.55286 128.975 6.67596C128.933 6.79906 128.916 7.00705 128.916 7.29568C128.916 8.3611 128.89 8.94262 128.839 9.04874C128.789 9.15485 128.368 9.39256 127.57 9.76609C126.772 10.1396 125.974 10.3264 125.172 10.3264C123.839 10.3264 122.702 9.89767 121.755 9.04449C120.809 8.19131 120.337 7.10892 120.337 5.79731C120.337 4.89744 120.562 4.08246 121.008 3.35238C121.454 2.62229 122.069 2.05775 122.846 1.6545C123.623 1.25126 124.417 1.05176 125.219 1.05176C125.974 1.05176 126.785 1.26824 127.659 1.70119C127.906 1.82429 128.08 1.88372 128.177 1.88372C128.317 1.88372 128.428 1.82429 128.504 1.70119C128.572 1.59508 128.632 1.54414 128.687 1.54414C128.793 1.54414 128.852 1.67573 128.869 1.9389C128.895 2.35487 128.963 2.98309 129.069 3.83627C129.077 3.88296 129.081 3.92116 129.081 3.95936C129.081 4.06973 129.035 4.12066 128.937 4.12066" fill="white"/>
<path d="M128.941 4.12066C128.882 4.12066 128.823 4.0485 128.759 3.90418C128.385 3.08496 127.897 2.4525 127.286 2.00681C126.675 1.56112 126.021 1.3404 125.333 1.3404C124.765 1.3404 124.217 1.51018 123.682 1.854C123.152 2.19782 122.714 2.72841 122.379 3.44151C122.044 4.15886 121.874 4.91866 121.874 5.7294C121.874 6.88395 122.218 7.88145 122.91 8.7219C123.602 9.56234 124.463 9.98257 125.499 9.98257C125.868 9.98257 126.182 9.92739 126.441 9.81278C126.7 9.69817 126.946 9.53688 127.176 9.3204C127.405 9.10816 127.545 8.94687 127.592 8.84499C127.638 8.73888 127.664 8.46722 127.664 8.02152C127.664 7.27446 127.566 6.78632 127.367 6.54862C127.167 6.31092 126.853 6.19631 126.416 6.19631L126.204 6.2048C126.072 6.2048 126.004 6.16235 126.004 6.07322C126.004 5.9671 126.076 5.91616 126.221 5.91616L126.581 5.9289L128.122 5.90767L130.011 5.86523C130.117 5.86523 130.168 5.91192 130.168 6.00955C130.168 6.10717 130.109 6.15811 129.99 6.1666C129.71 6.19631 129.476 6.25574 129.302 6.34912C129.124 6.4425 129.018 6.55286 128.975 6.67596C128.933 6.79906 128.916 7.00705 128.916 7.29568C128.916 8.3611 128.89 8.94262 128.839 9.04874C128.789 9.15485 128.368 9.39256 127.57 9.76609C126.772 10.1396 125.974 10.3264 125.172 10.3264C123.839 10.3264 122.702 9.89767 121.755 9.04449C120.809 8.19131 120.337 7.10892 120.337 5.79731C120.337 4.89744 120.562 4.08246 121.008 3.35238C121.454 2.62229 122.069 2.05775 122.846 1.6545C123.623 1.25126 124.417 1.05176 125.219 1.05176C125.974 1.05176 126.785 1.26824 127.659 1.70119C127.906 1.82429 128.08 1.88372 128.177 1.88372C128.317 1.88372 128.428 1.82429 128.504 1.70119C128.572 1.59508 128.632 1.54414 128.687 1.54414C128.793 1.54414 128.852 1.67573 128.869 1.9389C128.895 2.35487 128.963 2.98309 129.069 3.83627C129.077 3.88296 129.081 3.92116 129.081 3.95936C129.081 4.06973 129.035 4.12066 128.937 4.12066" stroke="white" stroke-width="0.260957"/>
<path d="M46.3943 27.8516C46.3943 27.5842 46.3094 27.4314 46.1396 27.3974C45.9699 27.3635 45.7534 27.3465 45.486 27.3465H32.7646V26.8668C33.2995 26.8668 33.5669 26.7055 33.5669 26.3872V14.2474C33.5669 13.9248 33.2995 13.7677 32.7646 13.7677V13.2881H37.3616V13.7677C36.865 13.7677 36.6146 13.929 36.6146 14.2474V24.8846H45.486C45.7534 24.8846 45.9699 24.8209 46.1396 24.6978C46.3094 24.5747 46.3943 24.4049 46.3943 24.1884H46.874V27.8474H46.3943V27.8516Z" fill="white"/>
<path d="M56.7089 15.5849C56.0297 15.5849 55.3548 15.691 54.6757 15.9075C53.9965 16.1197 53.3895 16.4296 52.8462 16.8286C52.3029 17.2276 51.8614 17.7242 51.5219 18.31C51.1823 18.9 51.0125 19.5664 51.0125 20.3134C51.0125 21.0605 51.1823 21.7312 51.5219 22.3169C51.8614 22.9027 52.2987 23.3993 52.8462 23.7983C53.3895 24.1973 54.0008 24.5072 54.6757 24.7194C55.3506 24.9317 56.0297 25.042 56.7089 25.042C57.388 25.042 58.0629 24.9359 58.7378 24.7194C59.4127 24.5072 60.024 24.1973 60.5673 23.7983C61.1106 23.3993 61.5521 22.9027 61.8916 22.3169C62.2312 21.7269 62.401 21.0605 62.401 20.3134C62.401 19.5664 62.2312 18.8957 61.8916 18.31C61.5521 17.7242 61.1106 17.2276 60.5673 16.8286C60.024 16.4296 59.4127 16.1197 58.7378 15.9075C58.0587 15.6952 57.3838 15.5849 56.7089 15.5849ZM56.7089 13.1272C57.6894 13.1272 58.6869 13.2758 59.7014 13.5686C60.7159 13.8615 61.6412 14.303 62.4816 14.893C63.3178 15.4788 64.0055 16.2258 64.5403 17.1257C65.0751 18.0256 65.3426 19.091 65.3426 20.3177C65.3426 21.5444 65.0751 22.6098 64.5403 23.5097C64.0055 24.4096 63.3178 25.1524 62.4816 25.7424C61.6454 26.3282 60.7201 26.7569 59.7014 27.0243C58.6869 27.2917 57.6894 27.4233 56.7089 27.4233C55.7284 27.4233 54.7309 27.2917 53.7164 27.0243C52.7019 26.7569 51.7723 26.3282 50.9361 25.7424C50.0999 25.1524 49.4123 24.4096 48.8774 23.5097C48.3426 22.6098 48.0752 21.5444 48.0752 20.3177C48.0752 19.091 48.3426 18.0256 48.8774 17.1257C49.4123 16.2258 50.0957 15.483 50.9361 14.893C51.7723 14.303 52.7019 13.8658 53.7164 13.5686C54.7309 13.2715 55.7284 13.1272 56.7089 13.1272Z" fill="white"/>
<path d="M81.5653 13.7681C81.2087 13.7681 80.9498 13.8997 80.7885 14.1543C80.6272 14.4133 80.5126 14.6213 80.4404 14.7826L75.7119 25.1778C75.5506 25.5343 75.419 25.8187 75.3129 26.031C75.2067 26.2474 75.1516 26.396 75.1516 26.4851C75.1516 26.5743 75.1728 26.6464 75.2195 26.6974C75.2619 26.7526 75.3213 26.8035 75.3935 26.8587V27.3383H71.3059V26.8587C71.4672 26.7865 71.5478 26.6634 71.5478 26.4851C71.5478 26.396 71.4799 26.2135 71.3483 25.9376C71.2167 25.6617 71.0512 25.3179 70.8559 24.9104L66.0467 14.46C65.9576 14.2647 65.8302 14.1204 65.6732 14.0312C65.5119 13.9421 65.2827 13.853 64.9771 13.7638V13.2842H69.7608V13.7638C69.6377 13.7638 69.5146 13.7935 69.4 13.8572C69.2854 13.9209 69.226 14.0397 69.226 14.218C69.226 14.4133 69.3024 14.6637 69.4509 14.9651C69.6038 15.2664 69.7863 15.6442 69.9985 16.0899L73.4197 23.4375L76.7603 16.196C76.9725 15.7334 77.1763 15.3174 77.363 14.9523C77.5498 14.5873 77.6432 14.3326 77.6432 14.1925C77.6432 13.9081 77.3928 13.7638 76.8961 13.7638V13.2842H81.5738V13.7638H81.5653V13.7681Z" fill="white"/>
<path d="M96.3283 16.1753C96.3283 15.98 96.2518 15.8315 96.099 15.7338C95.9462 15.6362 95.6873 15.5853 95.3095 15.5853H86.6504V18.9004H91.8883C92.2449 18.9004 92.5208 18.8537 92.716 18.7518C92.9113 18.6542 93.0089 18.3995 93.0089 17.992H93.4886V22.1603H93.0089C93.0089 21.7528 92.9113 21.4896 92.716 21.3708C92.5208 21.2562 92.2449 21.1967 91.8883 21.1967H86.6504V24.8854H95.5769C95.8444 24.8854 96.0608 24.8217 96.2306 24.6986C96.4004 24.5755 96.4853 24.4057 96.4853 24.1892H96.965V27.8524H96.4853C96.4853 27.585 96.4004 27.4322 96.2306 27.3982C96.0608 27.3643 95.8444 27.343 95.5769 27.343H83.123V26.8634C83.2461 26.8634 83.3607 26.8252 83.4584 26.7445C83.556 26.6639 83.6069 26.545 83.6069 26.3837V14.2482C83.6069 14.0869 83.556 13.968 83.4584 13.8874C83.3607 13.8067 83.2504 13.7685 83.123 13.7685V13.2889H95.3095C95.6831 13.2889 95.9462 13.2295 96.099 13.1149C96.2518 13.0003 96.3283 12.8432 96.3283 12.6479H96.8079V16.1753H96.3283Z" fill="white"/>
<path d="M108.169 19.5405C108.81 19.5405 109.344 19.4938 109.773 19.3919C110.202 19.2943 110.537 19.1542 110.788 18.976C111.038 18.7977 111.216 18.5897 111.322 18.3477C111.428 18.1058 111.484 17.8469 111.484 17.5582C111.484 17.2696 111.428 17.0107 111.322 16.7687C111.216 16.5268 111.038 16.3188 110.788 16.1405C110.537 15.9622 110.198 15.8222 109.773 15.7245C109.344 15.6269 108.81 15.576 108.169 15.576H103.546V19.532H108.169V19.5405ZM108.865 13.2881C109.718 13.2881 110.495 13.3645 111.191 13.5173C111.887 13.6701 112.481 13.9078 112.982 14.2389C113.483 14.57 113.865 14.9944 114.132 15.5208C114.4 16.0471 114.531 16.6923 114.531 17.4564C114.531 18.6321 114.183 19.532 113.491 20.156C112.795 20.78 111.861 21.2002 110.686 21.4124L114.238 26.4891C114.362 26.6673 114.51 26.7734 114.68 26.8116C114.85 26.8456 115.002 26.8668 115.147 26.8668V27.3465H110.151V26.8668C110.312 26.8668 110.448 26.8414 110.567 26.7862C110.681 26.731 110.741 26.6631 110.741 26.5739C110.741 26.4848 110.707 26.3829 110.635 26.2683C110.563 26.1537 110.456 25.9967 110.312 25.8014L107.375 21.6331H103.555V26.3914C103.555 26.5527 103.614 26.6716 103.729 26.7522C103.843 26.8329 104.055 26.8711 104.357 26.8711V27.3507H99.7344V26.8711C100.252 26.8711 100.511 26.7098 100.511 26.3914V14.2474C100.511 13.9248 100.252 13.7677 99.7344 13.7677V13.2881H108.873H108.865Z" fill="white"/>
<path d="M118.415 22.9324L118.682 23.0682C118.682 23.2295 118.716 23.3696 118.788 23.497C118.912 23.7092 119.158 23.9214 119.523 24.1252C119.888 24.3289 120.308 24.5114 120.779 24.6727C121.25 24.834 121.747 24.9614 122.261 25.059C122.778 25.1566 123.241 25.2076 123.649 25.2076C123.95 25.2076 124.345 25.1863 124.824 25.1397C125.304 25.0972 125.775 25.0038 126.242 24.8595C126.705 24.7194 127.108 24.5199 127.443 24.2695C127.783 24.0191 127.953 23.6922 127.953 23.2805C127.953 22.8687 127.796 22.5674 127.486 22.3721C127.176 22.1769 126.764 22.0325 126.255 21.9434C125.746 21.8543 125.168 21.7948 124.519 21.7694C123.869 21.7439 123.203 21.7015 122.528 21.6505C121.849 21.5996 121.187 21.5104 120.537 21.3831C119.888 21.26 119.306 21.0478 118.801 20.7549C118.292 20.462 117.884 20.0588 117.57 19.5536C117.256 19.0443 117.103 18.3821 117.103 17.5629C117.103 17.0111 117.231 16.4678 117.49 15.9329C117.749 15.3981 118.143 14.9269 118.678 14.5152C119.213 14.1035 119.888 13.7724 120.707 13.5135C121.526 13.2545 122.49 13.1272 123.593 13.1272C124.536 13.1272 125.355 13.1994 126.051 13.3394C126.747 13.4838 127.346 13.6323 127.855 13.7936C128.364 13.9549 128.789 14.1077 129.137 14.2478C129.485 14.3921 129.774 14.46 130.007 14.46C130.258 14.46 130.436 14.4048 130.542 14.2987L130.865 14.5152L129.022 17.8558L128.755 17.7497C128.721 17.4992 128.649 17.2955 128.543 17.1342C128.398 16.9219 128.165 16.7097 127.834 16.506C127.503 16.3022 127.117 16.1197 126.671 15.9584C126.225 15.7971 125.746 15.6698 125.228 15.5721C124.71 15.4745 124.196 15.4236 123.678 15.4236C123.288 15.4236 122.88 15.4533 122.464 15.517C122.044 15.5806 121.666 15.674 121.327 15.7971C120.987 15.9202 120.707 16.0857 120.486 16.2937C120.261 16.4975 120.151 16.7522 120.151 17.0535C120.151 17.4822 120.308 17.8006 120.618 18.0171C120.928 18.2293 121.34 18.3906 121.849 18.4967C122.358 18.6028 122.936 18.675 123.585 18.709C124.234 18.7429 124.897 18.7896 125.576 18.8405C126.251 18.8957 126.917 18.9891 127.566 19.1207C128.216 19.2565 128.797 19.4688 129.303 19.7616C129.812 20.0545 130.219 20.4535 130.534 20.9501C130.843 21.451 131 22.1005 131 22.9027C131 23.828 130.754 24.5878 130.266 25.1736C129.778 25.7594 129.167 26.2263 128.437 26.5616C127.707 26.9012 126.917 27.1262 126.072 27.2408C125.228 27.3554 124.438 27.4148 123.708 27.4148C122.694 27.4148 121.84 27.3554 121.157 27.2408C120.469 27.1262 119.901 26.9818 119.446 26.8121C118.992 26.6423 118.631 26.4895 118.364 26.3579C118.097 26.2263 117.863 26.1584 117.668 26.1584C117.545 26.1584 117.426 26.2305 117.32 26.3706L116.946 26.1584L118.415 22.9239V22.9324Z" fill="white"/>
<path d="M11.0504 10.4265L0 10.432L8.94162 16.8912L5.52795 27.3398L14.4586 20.8861L23.3892 27.3398L19.981 16.8802L28.9171 10.432H17.8777L14.4586 0L11.0504 10.4265Z" fill="#E3001E"/>
<path fill-rule="evenodd" clip-rule="evenodd" d="M9.97571 16.4582L2.7124 11.226H11.6811L14.4518 2.74292L17.228 11.226H26.1691L18.9334 16.4472L21.6986 24.9081L14.4518 19.687L7.20506 24.9137L9.97571 16.4582ZM10.8356 16.1822L4.98524 11.9545H5.0018H12.232L14.4838 5.09406L16.7191 11.9545H23.9162L23.9493 11.971L18.0934 16.1822L20.3397 23.0426L14.4783 18.8149L8.60034 23.0316L10.8356 16.1822Z" fill="white"/>
</svg>
