<?xml version="1.0" encoding="utf-8"?>
<!-- Generator: Adobe Illustrator 26.5.3, SVG Export Plug-In . SVG Version: 6.00 Build 0)  -->
<svg version="1.1" id="Layer_1" xmlns="http://www.w3.org/2000/svg" xmlns:xlink="http://www.w3.org/1999/xlink" x="0px" y="0px"
	 viewBox="0 0 128 128" style="enable-background:new 0 0 128 128;" xml:space="preserve">
<style type="text/css">
	.st0{fill:#2B4A76;fill-opacity:0.92;}
	.st1{fill:#F8F6F4;}
</style>
<g id="Group_1">
	<circle id="Ellipse_1" class="st0" cx="63.9" cy="64.1" r="44.8"/>
	<g id="Group">
		<g id="Group_2">
			<path id="heart" class="st1" d="M64.8,81.1c0.4,0,0.9-0.2,1.3-0.5c9.9-6.1,16.3-13.2,16.3-20.5c0-6-4.3-10.3-9.8-10.3
				c-3.4,0-6,1.7-7.6,4.4c-0.1,0.1-0.2,0.1-0.2,0c-1.6-2.7-4.2-4.4-7.6-4.4c-5.5,0-9.8,4.2-9.8,10.3c0,7.2,6.3,14.4,16.3,20.5
				C63.9,80.9,64.4,81.1,64.8,81.1z"/>
		</g>
	</g>
</g>
</svg>
