<?xml version="1.0" encoding="utf-8"?>
<!-- Generator: Adobe Illustrator 26.5.3, SVG Export Plug-In . SVG Version: 6.00 Build 0)  -->
<svg version="1.1" id="a" xmlns="http://www.w3.org/2000/svg" xmlns:xlink="http://www.w3.org/1999/xlink" x="0px" y="0px"
	 viewBox="0 0 128 41.5" style="enable-background:new 0 0 128 41.5;" xml:space="preserve">
<style type="text/css">
	.st0{fill:#FFFFFF;}
	.st1{fill:#EF1033;}
</style>
<g>
	<g>
		<path class="st0" d="M2.3,34.9c0,0.5,0,1,0,1.3v0.5c0,0.1,0,0.1,0,0.1s0.1,0,0.2,0c0.5,0,0.8-0.1,1.1-0.3s0.4-0.4,0.4-0.8
			c0-0.3-0.1-0.6-0.3-0.7c-0.2-0.2-0.5-0.2-0.8-0.2C2.7,34.8,2.5,34.8,2.3,34.9 M2.3,37.1c0,0.1,0,0.2,0,0.3l0,1.1
			c0,0.4,0,0.6,0,0.7c0,0,0.1,0.1,0.2,0.1c0.1,0,0.3,0,0.6,0c0.2,0,0.4,0,0.6-0.1c0.1-0.1,0.3-0.2,0.4-0.4s0.2-0.4,0.2-0.7
			c0-0.4-0.1-0.7-0.3-0.9c-0.2-0.2-0.6-0.3-1-0.3C2.6,37,2.4,37.1,2.3,37.1 M3.5,36.9c0.4,0.1,0.8,0.3,1,0.5
			c0.2,0.2,0.3,0.5,0.3,0.8c0,0.3-0.1,0.6-0.4,0.9c-0.3,0.3-0.7,0.4-1.2,0.4c-0.1,0-0.3,0-0.5,0c-0.1,0-0.2,0-0.2,0
			c-0.7,0-1.2,0-1.5,0c-0.1,0-0.1,0-0.1-0.1c0,0,0,0,0,0c0,0,0.1,0,0.3-0.1c0.1,0,0.2-0.1,0.2-0.1c0.1-0.1,0.1-0.2,0.1-0.4
			c0-0.2,0-0.5,0-0.9c0-0.4,0-0.7,0-0.9c0-0.2,0-0.4,0-0.5c0-0.4,0-0.7,0-1c0-0.2-0.1-0.4-0.1-0.5c-0.1-0.1-0.2-0.1-0.3-0.1
			c-0.1,0-0.1,0-0.1-0.1s0-0.1,0.1-0.1l0.7,0c0.2,0,0.4,0,0.6,0c0.4,0,0.7,0,0.8,0c0.4,0,0.8,0.1,1.1,0.3c0.3,0.2,0.4,0.5,0.4,0.8
			c0,0.3-0.1,0.5-0.3,0.7C4.2,36.6,3.9,36.8,3.5,36.9"/>
		<path class="st0" d="M8,37c0.1-0.1,0.3-0.4,0.6-0.8s0.4-0.6,0.5-0.7c0-0.1,0.1-0.2,0.1-0.2c0-0.1,0-0.2-0.1-0.2
			c-0.1-0.1-0.2-0.1-0.3-0.1c-0.1,0-0.1,0-0.1-0.1s0.1-0.1,0.2-0.1h1.4c0.1,0,0.2,0,0.2,0.1c0,0,0,0.1-0.1,0.1c-0.1,0-0.3,0-0.4,0.1
			s-0.3,0.2-0.5,0.4l-0.6,0.8c-0.3,0.4-0.5,0.7-0.5,0.8c0,0.1-0.1,0.4-0.1,0.9c0,0.6,0,1,0.1,1.1c0.1,0.1,0.2,0.2,0.5,0.2
			c0.1,0,0.1,0,0.1,0.1c0,0,0,0.1-0.1,0.1l-1,0c-0.2,0-0.4,0-0.6,0c-0.1,0-0.2,0-0.2,0c-0.1,0-0.1,0-0.1-0.1c0,0,0-0.1,0.1-0.1
			c0.2,0,0.4-0.1,0.5-0.3c0.1-0.2,0.1-0.4,0.1-0.7c0-0.3,0-0.6-0.1-0.8c0-0.1-0.1-0.3-0.3-0.6c-0.2-0.3-0.4-0.7-0.7-1.1
			c-0.3-0.4-0.5-0.7-0.6-0.7c-0.1-0.1-0.2-0.1-0.4-0.1c-0.1,0-0.1,0-0.1-0.1c0,0,0,0,0-0.1c0,0,0.1,0,0.2,0h1.6c0.1,0,0.2,0,0.2,0
			c0,0,0,0,0,0.1c0,0,0,0.1-0.1,0.1c-0.3,0-0.5,0.1-0.5,0.3c0,0.1,0.1,0.2,0.2,0.4C7.1,35.7,7.4,36.2,8,37"/>
		<path class="st0" d="M15.1,35c0.1-0.1,0.1-0.1,0.1-0.2c0-0.1,0-0.1,0.1-0.1c0,0,0,0,0.1,0c0,0.1,0,0.3,0.1,0.5l0.1,0.7
			c0,0,0,0.1-0.1,0.1c0,0-0.1,0-0.1-0.1c-0.1-0.3-0.3-0.6-0.6-0.8c-0.3-0.2-0.5-0.3-0.8-0.3s-0.5,0.1-0.7,0.3s-0.2,0.4-0.2,0.6
			c0,0.2,0.1,0.4,0.2,0.6c0.2,0.1,0.5,0.3,1,0.4c0.4,0.1,0.7,0.2,0.8,0.3c0.2,0.1,0.3,0.3,0.5,0.5c0.1,0.2,0.2,0.4,0.2,0.6
			c0,0.4-0.2,0.7-0.5,1c-0.3,0.3-0.7,0.5-1.2,0.5c-0.4,0-0.8-0.1-1.2-0.4c-0.1,0.1-0.1,0.1-0.2,0.2c0,0.1,0,0.1-0.1,0.1
			c0,0-0.1,0-0.1-0.1c0-0.1-0.1-0.6-0.1-1.4c0,0,0,0,0.1,0c0,0,0.1,0,0.1,0.1c0.4,0.9,0.9,1.4,1.6,1.4c0.3,0,0.6-0.1,0.8-0.3
			c0.2-0.2,0.3-0.4,0.3-0.7c0-0.2,0-0.3-0.2-0.5c-0.1-0.1-0.2-0.3-0.4-0.4c-0.2-0.1-0.4-0.2-0.8-0.3c-0.5-0.1-0.8-0.3-0.9-0.4
			c-0.2-0.1-0.3-0.3-0.4-0.4c-0.1-0.2-0.1-0.3-0.1-0.5c0-0.3,0.1-0.6,0.4-0.8c0.3-0.2,0.6-0.4,1.1-0.4c0.2,0,0.3,0,0.5,0.1
			C14.8,34.8,15,34.9,15.1,35"/>
		<path class="st0" d="M16.9,38.8c0.1,0,0.2,0,0.3,0.1c0.1,0.1,0.1,0.2,0.1,0.3s0,0.2-0.1,0.3c-0.1,0.1-0.2,0.1-0.3,0.1
			s-0.2,0-0.3-0.1c-0.1-0.1-0.1-0.2-0.1-0.3c0-0.1,0-0.2,0.1-0.3C16.7,38.8,16.8,38.8,16.9,38.8"/>
		<path class="st0" d="M19.4,37c0.4,0,0.6,0,0.6,0c0.2,0,0.5,0,0.7-0.1c0.2-0.1,0.4-0.2,0.5-0.5c0.1-0.2,0.2-0.4,0.2-0.6
			c0-0.3-0.1-0.5-0.3-0.7c-0.2-0.2-0.5-0.3-1-0.3c-0.2,0-0.5,0-0.7,0.1c0,0.1,0,0.1,0,0.2l0,0.8l0,0.9C19.4,36.8,19.4,36.9,19.4,37
			 M19.4,37.2c0,0.1,0,0.3,0,0.5c0,0.1,0,0.2,0,0.3c0,0.1,0,0.3,0,0.5s0,0.4,0,0.5s0.1,0.1,0.2,0.2c0.1,0.1,0.2,0.1,0.3,0.1
			c0.1,0,0.2,0,0.2,0.1c0,0,0,0.1,0,0.1c0,0-0.2,0-0.4,0h-1c-0.3,0-0.4,0-0.4,0c0,0,0,0,0,0c0,0,0-0.1,0.1-0.1
			c0.2,0,0.3-0.1,0.3-0.2c0.1-0.1,0.1-0.2,0.1-0.5c0-0.3,0-0.5,0-0.9l0-1l0-1c0-0.4,0-0.6-0.1-0.7s-0.1-0.2-0.3-0.2
			c-0.2,0-0.2-0.1-0.2-0.1c0,0,0-0.1,0.1-0.1h1.9c0.8,0,1.3,0.1,1.5,0.3c0.3,0.2,0.4,0.5,0.4,0.9c0,0.4-0.2,0.7-0.5,0.9
			c-0.3,0.2-0.9,0.3-1.5,0.3C19.8,37.2,19.6,37.2,19.4,37.2"/>
		<path class="st0" d="M26.4,34.8c0.1,0.3,0.1,0.6,0.2,1.1c0,0,0,0,0,0c0,0,0,0-0.1,0c-0.2-0.3-0.3-0.5-0.5-0.6
			c-0.2-0.1-0.3-0.2-0.5-0.3c-0.2-0.1-0.4-0.1-0.8-0.1c-0.4,0-0.6,0-0.8,0.1c0,0,0,0.1,0,0.1c0,0,0,0,0,0.1c0,0.2,0,0.7,0,1.6
			c0,0,0,0.1,0,0.2c0.2,0,0.3,0,0.4,0c0.3,0,0.5,0,0.7-0.1c0.1-0.1,0.3-0.3,0.4-0.6c0,0,0-0.1,0.1-0.1c0,0,0.1,0,0.1,0.1l0,0.1
			c0,0.2,0,0.4,0,0.6c0,0.3,0,0.6,0,0.9c0,0.1,0,0.1-0.1,0.1c0,0-0.1,0-0.1-0.1c0-0.3-0.2-0.5-0.3-0.6c-0.2-0.1-0.5-0.2-1.1-0.2
			c0,0.2,0,0.5,0,0.8c0,0.5,0,0.8,0.1,1c0,0.1,0.1,0.2,0.3,0.3c0.1,0.1,0.4,0.1,0.7,0.1c0.9,0,1.5-0.3,1.8-1c0-0.1,0.1-0.1,0.1-0.1
			c0,0,0.1,0,0.1,0.1c0,0,0,0.1,0,0.1c0,0,0,0.2-0.1,0.5c0,0.1-0.1,0.3-0.1,0.6h-1.5c-0.2,0-0.5,0-1,0c-0.4,0-0.8,0-1.1,0
			c-0.3,0-0.5,0-0.5,0c0,0,0,0,0,0c0,0,0-0.1,0.1-0.1c0.3,0,0.4-0.1,0.5-0.2c0.1-0.1,0.1-0.5,0.1-1v-0.7l0-0.7c0-0.1,0-0.4,0-0.8
			c0-0.4,0-0.6,0-0.7c0-0.1,0-0.1-0.1-0.2c-0.1-0.1-0.2-0.1-0.4-0.2c-0.1,0-0.1,0-0.1-0.1c0,0,0-0.1,0.1-0.1l0.7,0
			c0.3,0,0.9,0,1.9,0C26.1,34.8,26.4,34.8,26.4,34.8"/>
		<path class="st0" d="M31.4,39.5c-0.1,0-0.2,0-0.2,0c-0.1,0-0.3,0-0.5,0c-0.2,0-0.7,0-1.5,0h-0.9c0,0-0.2,0-0.4,0
			c-0.2,0-0.3,0-0.4,0c-0.2,0-0.3,0-0.3-0.1c0,0,0-0.1,0.1-0.1c0.2,0,0.4-0.1,0.5-0.2c0.1-0.1,0.2-0.2,0.2-0.4c0-0.2,0-0.6,0-1.3
			v-1.3c0-0.4,0-0.7-0.1-0.9c0-0.2-0.1-0.3-0.2-0.4c-0.1-0.1-0.2-0.1-0.4-0.1c-0.1,0-0.1,0-0.1-0.1s0-0.1,0.1-0.1c0,0,0,0,0.1,0
			c0.4,0,0.8,0,1.3,0l0.6,0c0.1,0,0.1,0,0.1,0.1c0,0,0,0.1-0.1,0.1c-0.2,0-0.3,0-0.4,0.1c-0.1,0.1-0.2,0.1-0.2,0.2
			c0,0.1-0.1,0.3-0.1,0.5l0,1.7l0,1c0,0.3,0,0.5,0,0.6c0,0.1,0.1,0.2,0.2,0.2c0.1,0.1,0.2,0.1,0.4,0.1c0,0,0.2,0,0.6,0
			c0.3,0,0.6-0.2,0.9-0.5c0.3-0.3,0.4-0.5,0.5-0.7c0-0.1,0.1-0.1,0.1-0.1s0.1,0,0.1,0.1c0,0.1,0,0.3-0.1,0.7
			C31.5,39.2,31.4,39.4,31.4,39.5"/>
		<path class="st0" d="M36,39.5c-0.1,0-0.2,0-0.2,0c-0.1,0-0.3,0-0.5,0c-0.2,0-0.7,0-1.5,0h-0.9c0,0-0.2,0-0.4,0c-0.2,0-0.3,0-0.4,0
			c-0.2,0-0.3,0-0.3-0.1c0,0,0-0.1,0.1-0.1c0.2,0,0.4-0.1,0.5-0.2s0.2-0.2,0.2-0.4c0-0.2,0-0.6,0-1.3v-1.3c0-0.4,0-0.7-0.1-0.9
			c0-0.2-0.1-0.3-0.2-0.4c-0.1-0.1-0.3-0.1-0.4-0.1c-0.1,0-0.1,0-0.1-0.1s0-0.1,0.1-0.1c0,0,0,0,0.1,0c0.4,0,0.8,0,1.3,0l0.6,0
			c0.1,0,0.1,0,0.1,0.1c0,0,0,0.1-0.1,0.1c-0.2,0-0.3,0-0.4,0.1c-0.1,0.1-0.2,0.1-0.2,0.2c0,0.1-0.1,0.3-0.1,0.5l0,1.7l0,1
			c0,0.3,0,0.5,0,0.6c0,0.1,0.1,0.2,0.2,0.2c0.1,0.1,0.2,0.1,0.4,0.1c0,0,0.2,0,0.6,0c0.3,0,0.6-0.2,0.9-0.5
			c0.3-0.3,0.4-0.5,0.5-0.7c0-0.1,0.1-0.1,0.1-0.1c0,0,0.1,0,0.1,0.1c0,0.1,0,0.3-0.1,0.7S36,39.4,36,39.5"/>
		<path class="st0" d="M40.4,34.8c0.1,0.3,0.1,0.6,0.2,1.1c0,0,0,0,0,0c0,0,0,0-0.1,0c-0.2-0.3-0.3-0.5-0.5-0.6
			c-0.2-0.1-0.3-0.2-0.5-0.3c-0.2-0.1-0.4-0.1-0.8-0.1c-0.4,0-0.6,0-0.8,0.1c0,0,0,0.1,0,0.1c0,0,0,0,0,0.1c0,0.2,0,0.7,0,1.6
			c0,0,0,0.1,0,0.2c0.2,0,0.3,0,0.4,0c0.3,0,0.5,0,0.7-0.1c0.1-0.1,0.3-0.3,0.4-0.6c0,0,0-0.1,0.1-0.1c0,0,0.1,0,0.1,0.1l0,0.1
			c0,0.2,0,0.4,0,0.6c0,0.3,0,0.6,0,0.9c0,0.1,0,0.1-0.1,0.1c0,0-0.1,0-0.1-0.1c0-0.3-0.2-0.5-0.3-0.6c-0.2-0.1-0.5-0.2-1.1-0.2
			c0,0.2,0,0.5,0,0.8c0,0.5,0,0.8,0.1,1c0,0.1,0.1,0.2,0.3,0.3c0.1,0.1,0.4,0.1,0.7,0.1c0.9,0,1.5-0.3,1.8-1c0-0.1,0.1-0.1,0.1-0.1
			c0,0,0.1,0,0.1,0.1c0,0,0,0.1,0,0.1c0,0,0,0.2-0.1,0.5c0,0.1-0.1,0.3-0.1,0.6h-1.5c-0.2,0-0.5,0-1,0c-0.4,0-0.8,0-1.1,0
			s-0.5,0-0.5,0c0,0,0,0,0,0c0,0,0-0.1,0.1-0.1c0.3,0,0.4-0.1,0.5-0.2c0.1-0.1,0.1-0.5,0.1-1v-0.7l0-0.7c0-0.1,0-0.4,0-0.8
			c0-0.4,0-0.6,0-0.7c0-0.1,0-0.1-0.1-0.2c-0.1-0.1-0.2-0.1-0.4-0.2c-0.1,0-0.1,0-0.1-0.1c0,0,0-0.1,0.1-0.1l0.7,0
			c0.3,0,0.9,0,1.9,0C40.1,34.8,40.4,34.8,40.4,34.8"/>
		<path class="st0" d="M46,36.2c0,0-0.1,0-0.1-0.1c-0.2-0.4-0.5-0.8-0.8-1c-0.3-0.2-0.7-0.4-1-0.4c-0.3,0-0.6,0.1-0.9,0.3
			c-0.3,0.2-0.5,0.5-0.7,0.8c-0.2,0.4-0.3,0.8-0.3,1.2c0,0.6,0.2,1.1,0.6,1.6c0.4,0.4,0.8,0.7,1.4,0.7c0.2,0,0.4,0,0.5-0.1
			s0.3-0.1,0.4-0.3c0.1-0.1,0.2-0.2,0.2-0.3c0-0.1,0-0.2,0-0.4c0-0.4-0.1-0.7-0.2-0.8c-0.1-0.1-0.3-0.2-0.5-0.2h-0.1
			c-0.1,0-0.1,0-0.1-0.1c0-0.1,0-0.1,0.1-0.1l0.2,0l0.8,0l1,0c0.1,0,0.1,0,0.1,0.1c0,0.1,0,0.1-0.1,0.1c-0.1,0-0.3,0-0.4,0.1
			c-0.1,0-0.2,0.1-0.2,0.2c0,0.1,0,0.2,0,0.3c0,0.6,0,0.9,0,0.9c0,0.1-0.3,0.2-0.7,0.4c-0.4,0.2-0.8,0.3-1.3,0.3
			c-0.7,0-1.3-0.2-1.8-0.7c-0.5-0.5-0.8-1-0.8-1.7c0-0.5,0.1-0.9,0.4-1.3c0.2-0.4,0.6-0.7,1-0.9s0.8-0.3,1.3-0.3
			c0.4,0,0.8,0.1,1.3,0.3c0.1,0.1,0.2,0.1,0.3,0.1c0.1,0,0.1,0,0.2-0.1c0-0.1,0.1-0.1,0.1-0.1c0.1,0,0.1,0.1,0.1,0.2
			c0,0.2,0,0.6,0.1,1C46.1,36.1,46.1,36.1,46,36.2C46.1,36.2,46.1,36.3,46,36.2"/>
		<path class="st0" d="M48.5,36.9c0.5,0,0.8,0,1-0.1c0.2-0.1,0.4-0.2,0.6-0.4s0.2-0.4,0.2-0.7c0-0.3-0.1-0.5-0.3-0.7
			c-0.2-0.2-0.5-0.3-0.9-0.3c-0.2,0-0.5,0-0.7,0.1c0,0.7,0,1.2,0,1.6C48.5,36.6,48.5,36.8,48.5,36.9 M49.9,37
			c0.3,0.1,0.6,0.3,0.7,0.5c0.1,0.2,0.2,0.4,0.3,0.7c0.1,0.4,0.2,0.7,0.3,0.9c0.1,0.1,0.3,0.2,0.6,0.2c0.1,0,0.1,0,0.1,0.1
			c0,0,0,0.1-0.1,0.1c-0.7,0-1.1,0-1.2-0.1c-0.1,0-0.3-0.3-0.3-0.7c-0.1-0.4-0.1-0.8-0.2-1c-0.1-0.2-0.2-0.4-0.3-0.5
			c-0.2-0.1-0.4-0.2-0.7-0.2c-0.1,0-0.3,0-0.4,0c0,0.2,0,0.3,0,0.5c0,0.6,0,1,0,1.2c0,0.2,0.1,0.3,0.2,0.4c0.1,0.1,0.2,0.1,0.4,0.1
			c0.1,0,0.1,0,0.1,0.1c0,0-0.1,0.1-0.2,0.1h-1.8c-0.1,0-0.2,0-0.2-0.1c0,0,0-0.1,0.1-0.1c0.2,0,0.3,0,0.4-0.1
			c0.1-0.1,0.1-0.1,0.2-0.3c0-0.1,0.1-0.3,0.1-0.6l0-0.7v-1.1c0-0.6,0-1,0-1.1c0-0.2-0.1-0.3-0.1-0.4c-0.1-0.1-0.2-0.1-0.5-0.1
			c0,0-0.1,0-0.1-0.1c0,0,0-0.1,0.2-0.1l2.1,0c0.6,0,1,0.1,1.3,0.3c0.3,0.2,0.4,0.5,0.4,0.8c0,0.2-0.1,0.4-0.2,0.6
			c-0.1,0.2-0.2,0.3-0.4,0.4C50.4,36.9,50.2,36.9,49.9,37"/>
		<path class="st0" d="M52.4,34.7l0.7,0l1,0c0.1,0,0.2,0,0.2,0.1c0,0,0,0.1-0.1,0.1c-0.3,0-0.4,0.1-0.5,0.3
			c-0.1,0.2-0.1,0.7-0.1,1.8c0,0.4,0,0.8,0,1.3c0,0.5,0,0.7,0.1,0.8c0,0.1,0.1,0.2,0.1,0.2c0.1,0.1,0.2,0.1,0.4,0.1
			c0.1,0,0.1,0,0.1,0.1c0,0,0,0.1-0.1,0.1l-0.9,0l-0.8,0c-0.1,0-0.1,0-0.1-0.1c0,0,0-0.1,0.1-0.1c0.2,0,0.4-0.1,0.4-0.2
			c0-0.1,0.1-0.6,0.1-1.4s0-1.4,0-1.8c0-0.5-0.1-0.7-0.1-0.8c-0.1-0.1-0.2-0.2-0.4-0.2C52.3,34.8,52.3,34.8,52.4,34.7
			C52.3,34.7,52.3,34.7,52.4,34.7"/>
		<path class="st0" d="M56,34.8c0.1,0.2,0.4,0.5,0.8,0.9l1.2,1.3l1.1,1.3c0-0.4,0-1,0-1.7c0-0.5,0-0.9,0-1s-0.1-0.3-0.2-0.4
			c-0.1-0.1-0.3-0.2-0.5-0.2c-0.1,0-0.1,0-0.1-0.1c0,0,0,0,0-0.1c0,0,0.2,0,0.5,0c0.3,0,0.6,0,0.8,0h0.6c0.1,0,0.1,0,0.1,0.1
			c0,0,0,0.1-0.1,0.1c-0.2,0-0.4,0.1-0.5,0.2c-0.1,0.1-0.2,0.2-0.2,0.4c0,0.2,0,0.8,0,1.9l0,1.9c0,0.1,0,0.1-0.1,0.1c0,0,0,0,0,0
			c0,0-0.1-0.1-0.3-0.4c-0.2-0.2-0.4-0.5-0.7-0.8c-0.3-0.3-0.5-0.6-0.7-0.8c-0.4-0.4-0.6-0.7-0.7-0.8c-0.3-0.4-0.6-0.6-0.6-0.7
			c0-0.1-0.1-0.1-0.1-0.1c0,0,0,0,0,0.1l0,0.6c0,0.7,0,1.3,0.1,1.7c0,0.4,0.1,0.7,0.1,0.7c0,0.1,0.1,0.1,0.2,0.2
			c0.1,0.1,0.2,0.1,0.3,0.1c0.2,0,0.2,0,0.2,0.1c0,0,0,0.1-0.1,0.1H55c-0.1,0-0.1,0-0.1-0.1c0,0,0-0.1,0.1-0.1
			c0.3,0,0.5-0.1,0.6-0.2s0.1-0.4,0.1-0.8l0-1.3c0-0.7,0-1.2-0.1-1.3c0-0.1-0.1-0.3-0.3-0.5c-0.1-0.2-0.3-0.3-0.5-0.3
			c-0.1,0-0.1,0-0.1-0.1c0,0,0.1-0.1,0.2-0.1L56,34.8L56,34.8z"/>
		<path class="st0" d="M61.3,36.9c0,0.4,0.1,0.8,0.2,1.2c0.1,0.4,0.3,0.7,0.6,0.9c0.3,0.2,0.5,0.3,0.8,0.3c0.5,0,0.9-0.2,1.1-0.7
			s0.4-1,0.4-1.6c0-0.6-0.1-1.1-0.4-1.5c-0.3-0.4-0.7-0.7-1.1-0.7c-0.4,0-0.7,0.1-0.9,0.4c-0.2,0.2-0.4,0.5-0.5,0.8
			C61.4,36.4,61.3,36.7,61.3,36.9 M60.5,37.1c0-0.3,0.1-0.7,0.3-1.1c0.2-0.4,0.5-0.7,0.9-1c0.4-0.3,0.8-0.4,1.3-0.4
			c0.7,0,1.2,0.2,1.7,0.7c0.4,0.5,0.7,1,0.7,1.6c0,0.6-0.2,1.2-0.7,1.7c-0.5,0.5-1.1,0.8-1.7,0.8c-0.7,0-1.2-0.2-1.6-0.7
			C60.7,38.4,60.5,37.8,60.5,37.1"/>
		<path class="st0" d="M69.5,36.4c0.3-0.3,0.5-0.6,0.5-0.8c0-0.2-0.1-0.3-0.2-0.5C69.6,35,69.5,35,69.3,35c-0.2,0-0.3,0.1-0.4,0.2
			c-0.1,0.1-0.1,0.2-0.1,0.4C68.8,35.8,69,36.1,69.5,36.4 M69.2,36.9c-0.2,0.2-0.4,0.3-0.6,0.5c-0.1,0.2-0.2,0.4-0.2,0.7
			c0,0.3,0.1,0.5,0.3,0.8c0.2,0.2,0.4,0.3,0.7,0.3c0.4,0,0.8-0.2,1.1-0.6c-0.2-0.4-0.4-0.6-0.5-0.8C69.8,37.6,69.6,37.3,69.2,36.9
			 M71,38.3c0.2,0.4,0.4,0.7,0.5,0.8s0.2,0.1,0.4,0.1c0.2,0,0.3-0.1,0.5-0.2c0,0,0,0,0,0c0,0,0.1,0,0.1,0.1c0,0-0.1,0.1-0.3,0.3
			c-0.2,0.1-0.4,0.2-0.7,0.2c-0.1,0-0.3,0-0.4-0.1s-0.3-0.3-0.5-0.7c-0.5,0.5-1.1,0.8-1.6,0.8c-0.3,0-0.6-0.1-0.9-0.3
			c-0.2-0.2-0.3-0.5-0.3-0.8c0-0.3,0.1-0.6,0.3-0.8c0.2-0.2,0.5-0.5,1-0.8c-0.4-0.4-0.7-0.8-0.7-1.1c0-0.3,0.1-0.5,0.3-0.7
			c0.2-0.2,0.4-0.3,0.7-0.3c0.2,0,0.4,0.1,0.6,0.2c0.2,0.1,0.3,0.3,0.3,0.6c0,0.3-0.2,0.6-0.6,1c0.6,0.5,1,1,1.3,1.6
			c0.3-0.5,0.5-0.9,0.5-1.1c0-0.1,0-0.2-0.1-0.3c-0.1-0.1-0.2-0.1-0.3-0.1c-0.1,0-0.2,0-0.2-0.1c0,0,0-0.1,0.1-0.1l0.6,0l0.9,0
			c0.1,0,0.1,0,0.1,0.1s0,0.1-0.1,0.1c-0.2,0-0.3,0.1-0.4,0.2c-0.1,0.1-0.3,0.4-0.4,0.7C71.2,37.9,71.1,38.1,71,38.3"/>
		<path class="st0" d="M76.6,35.4c-0.2,0.5-0.5,1.1-0.8,2c0.2,0,0.4,0,0.5,0l1,0c-0.1-0.3-0.2-0.6-0.4-1
			C76.8,35.9,76.7,35.6,76.6,35.4 M76.8,34.6H77c0.3,0.5,0.6,1.5,1.1,2.8c0.3,0.9,0.5,1.4,0.6,1.6c0.1,0.2,0.3,0.3,0.5,0.3
			c0.1,0,0.1,0,0.1,0.1c0,0,0,0-0.1,0h0c-0.2,0-0.5,0-0.8,0c-0.5,0-0.9,0-1,0c-0.1,0-0.1,0-0.1-0.1c0,0,0,0,0.1-0.1
			c0.2,0,0.3-0.1,0.4-0.1c0.1,0,0.1-0.1,0.1-0.2c0-0.1-0.1-0.4-0.2-0.8l-0.2-0.6c-0.1,0-0.7,0-1.7,0c-0.3,0.7-0.4,1.1-0.4,1.3
			c0,0.1,0.1,0.3,0.2,0.3s0.2,0.1,0.4,0.1c0.1,0,0.1,0,0.1,0.1c0,0,0,0,0,0.1c-0.4,0-0.6,0-0.7,0c-0.4,0-0.7,0-0.8,0
			c-0.1,0-0.1,0-0.1-0.1c0,0,0-0.1,0.1-0.1c0.3,0,0.5-0.2,0.6-0.6c0.1-0.3,0.4-0.9,0.7-1.8C76.1,36.1,76.4,35.4,76.8,34.6"/>
		<path class="st0" d="M83.5,35c0.1-0.1,0.2-0.2,0.2-0.2c0-0.1,0.1-0.1,0.1-0.1s0.1,0,0.1,0.1l0.1,1.3c0,0.1,0,0.1,0,0.1
			c0,0,0,0-0.1,0c0,0-0.1-0.1-0.1-0.2c-0.2-0.4-0.4-0.7-0.7-0.9c-0.3-0.2-0.6-0.4-0.9-0.4c-0.3,0-0.6,0.1-0.8,0.3
			c-0.2,0.2-0.4,0.5-0.6,0.8c-0.1,0.3-0.2,0.7-0.2,1.1c0,0.7,0.2,1.2,0.6,1.7c0.4,0.4,0.8,0.6,1.3,0.6c0.3,0,0.6-0.1,0.9-0.3
			c0.3-0.2,0.5-0.4,0.6-0.7c0-0.1,0.1-0.1,0.1-0.1c0.1,0,0.1,0,0.1,0.1c0,0.1-0.1,0.2-0.3,0.5c-0.2,0.2-0.4,0.4-0.7,0.6
			c-0.3,0.1-0.6,0.2-1,0.2c-0.4,0-0.8-0.1-1.1-0.3s-0.7-0.5-0.9-0.8c-0.2-0.4-0.3-0.8-0.3-1.3c0-0.5,0.1-0.9,0.3-1.3
			c0.2-0.4,0.5-0.7,0.9-0.9c0.4-0.2,0.8-0.3,1.2-0.3c0.2,0,0.4,0,0.7,0.1C83.1,34.8,83.3,34.9,83.5,35"/>
		<path class="st0" d="M85.4,37c0,0.4,0.1,0.8,0.2,1.2c0.1,0.4,0.3,0.7,0.5,0.9c0.2,0.2,0.5,0.3,0.8,0.3c0.5,0,0.8-0.2,1.1-0.7
			c0.3-0.4,0.4-1,0.4-1.6c0-0.6-0.1-1.1-0.4-1.6c-0.3-0.4-0.7-0.7-1.2-0.7s-0.8,0.2-1.1,0.7C85.6,35.9,85.4,36.4,85.4,37 M87.4,39.5
			c-0.2,0-0.4,0-0.6,0c-0.4,0-0.7-0.1-1-0.3c-0.3-0.2-0.6-0.5-0.8-0.8c-0.2-0.4-0.3-0.8-0.3-1.2c0-0.7,0.2-1.3,0.7-1.8
			c0.5-0.5,1-0.8,1.7-0.8c0.4,0,0.8,0.1,1.2,0.3c0.3,0.2,0.6,0.5,0.8,0.9c0.2,0.4,0.3,0.8,0.3,1.1c0,0.3-0.1,0.6-0.2,1
			c-0.1,0.3-0.3,0.6-0.6,0.8c-0.2,0.2-0.5,0.4-0.8,0.6c-0.3,0.2-0.7,0.3-1.1,0.5c-0.3,0.1-0.5,0.2-0.6,0.3c0.1,0,0.2,0,0.2,0
			c0.2,0,0.3,0,0.5,0.1c0.1,0.1,0.4,0.2,0.7,0.4c0.4,0.2,0.7,0.4,0.9,0.4c0.2,0,0.3,0,0.4-0.1c0.1-0.1,0.2-0.2,0.4-0.4
			c0,0,0.1-0.1,0.1-0.1c0,0,0.1,0,0.1,0.1c0,0.1-0.1,0.3-0.4,0.5c-0.3,0.3-0.6,0.4-1,0.4c-0.2,0-0.4,0-0.6-0.1
			c-0.2-0.1-0.5-0.3-0.9-0.6c-0.2-0.2-0.4-0.3-0.6-0.3c-0.1,0-0.3,0-0.3,0.1c-0.1,0.1-0.1,0.2-0.1,0.4c0,0.1,0,0.2-0.1,0.3
			c0,0.1-0.1,0.1-0.2,0.1c-0.1,0-0.1,0-0.2-0.1c-0.1,0-0.1-0.1-0.1-0.2c0-0.1,0.1-0.3,0.2-0.4c0.1-0.2,0.3-0.3,0.5-0.4
			c0.2-0.1,0.6-0.3,1-0.4C87,39.6,87.3,39.5,87.4,39.5"/>
		<path class="st0" d="M90.1,34.7h1.8c0.1,0,0.2,0,0.2,0.1s0,0.1-0.1,0.1c-0.2,0-0.3,0.1-0.4,0.1c-0.1,0.1-0.1,0.2-0.2,0.4
			c0,0.2-0.1,0.6-0.1,1.3c0,0.8,0,1.3,0.1,1.6s0.2,0.5,0.4,0.7c0.2,0.2,0.6,0.3,1,0.3c0.4,0,0.7-0.1,1-0.2c0.2-0.2,0.4-0.4,0.4-0.7
			c0.1-0.3,0.1-1,0.1-2.1c0-0.5-0.1-0.9-0.2-1.1c-0.1-0.2-0.3-0.3-0.5-0.3c-0.1,0-0.1,0-0.1-0.1s0.1-0.1,0.2-0.1h1.4
			c0.1,0,0.1,0,0.1,0.1c0,0,0,0.1-0.1,0.1c-0.2,0-0.3,0.1-0.4,0.2c-0.1,0.1-0.1,0.3-0.2,0.5s0,0.6,0,1c0,0.6,0,1-0.1,1.4
			c0,0.4-0.1,0.7-0.3,0.9c-0.1,0.2-0.3,0.3-0.6,0.5c-0.3,0.1-0.6,0.2-1,0.2s-0.8-0.1-1.1-0.2c-0.3-0.1-0.5-0.3-0.6-0.5
			c-0.1-0.2-0.2-0.5-0.2-1l0-1c0-0.9,0-1.4-0.1-1.6c-0.1-0.2-0.2-0.3-0.5-0.3c-0.1,0-0.1,0-0.1-0.1C89.9,34.8,90,34.7,90.1,34.7"/>
		<path class="st0" d="M97.6,35.4c-0.2,0.5-0.5,1.1-0.8,2c0.2,0,0.4,0,0.5,0l1,0c-0.1-0.3-0.2-0.6-0.4-1
			C97.8,35.9,97.6,35.6,97.6,35.4 M97.7,34.6h0.2c0.3,0.5,0.6,1.5,1.1,2.8c0.3,0.9,0.5,1.4,0.6,1.6s0.3,0.3,0.5,0.3
			c0.1,0,0.1,0,0.1,0.1c0,0,0,0-0.1,0h0c-0.2,0-0.5,0-0.8,0c-0.5,0-0.9,0-1,0c-0.1,0-0.1,0-0.1-0.1c0,0,0,0,0.1-0.1
			c0.2,0,0.3-0.1,0.4-0.1c0.1,0,0.1-0.1,0.1-0.2c0-0.1-0.1-0.4-0.2-0.8l-0.2-0.6c-0.1,0-0.7,0-1.7,0c-0.3,0.7-0.4,1.1-0.4,1.3
			c0,0.1,0.1,0.3,0.2,0.3s0.2,0.1,0.4,0.1c0.1,0,0.1,0,0.1,0.1c0,0,0,0,0,0.1c-0.4,0-0.6,0-0.7,0c-0.4,0-0.7,0-0.8,0
			c-0.1,0-0.1,0-0.1-0.1c0,0,0-0.1,0.1-0.1c0.3,0,0.5-0.2,0.6-0.6c0.1-0.3,0.4-0.9,0.7-1.8C97.1,36.1,97.4,35.4,97.7,34.6"/>
		<path class="st0" d="M103.9,37c0.4,0,0.6,0,0.6,0c0.2,0,0.5,0,0.7-0.1c0.2-0.1,0.4-0.2,0.5-0.5c0.1-0.2,0.2-0.4,0.2-0.6
			c0-0.3-0.1-0.5-0.3-0.7c-0.2-0.2-0.5-0.3-1-0.3c-0.2,0-0.5,0-0.7,0.1c0,0.1,0,0.1,0,0.2l0,0.8l0,0.9
			C103.9,36.8,103.9,36.9,103.9,37 M103.9,37.2c0,0.1,0,0.3,0,0.5c0,0.1,0,0.2,0,0.3c0,0.1,0,0.3,0,0.5c0,0.3,0,0.4,0,0.5
			c0,0.1,0.1,0.1,0.2,0.2c0.1,0.1,0.2,0.1,0.3,0.1c0.1,0,0.2,0,0.2,0.1c0,0,0,0.1,0,0.1c0,0-0.2,0-0.4,0h-1c-0.3,0-0.4,0-0.4,0
			c0,0,0,0,0,0c0,0,0-0.1,0.1-0.1c0.2,0,0.3-0.1,0.3-0.2c0.1-0.1,0.1-0.2,0.1-0.5c0-0.3,0-0.5,0-0.9l0-1l0-1c0-0.4,0-0.6-0.1-0.7
			s-0.1-0.2-0.3-0.2c-0.2,0-0.2-0.1-0.2-0.1c0,0,0-0.1,0.1-0.1h1.9c0.8,0,1.3,0.1,1.5,0.3c0.3,0.2,0.4,0.5,0.4,0.9
			c0,0.4-0.2,0.7-0.5,0.9c-0.3,0.2-0.9,0.3-1.5,0.3C104.3,37.2,104.1,37.2,103.9,37.2"/>
		<path class="st0" d="M109.1,35.4c-0.2,0.5-0.5,1.1-0.8,2c0.2,0,0.4,0,0.5,0l1,0c-0.1-0.3-0.2-0.6-0.4-1
			C109.3,35.9,109.1,35.6,109.1,35.4 M109.2,34.6h0.2c0.3,0.5,0.6,1.5,1.1,2.8c0.3,0.9,0.5,1.4,0.6,1.6s0.3,0.3,0.5,0.3
			c0.1,0,0.1,0,0.1,0.1c0,0,0,0-0.1,0h0c-0.2,0-0.5,0-0.8,0c-0.5,0-0.9,0-1,0c-0.1,0-0.1,0-0.1-0.1c0,0,0,0,0.1-0.1
			c0.2,0,0.3-0.1,0.4-0.1c0.1,0,0.1-0.1,0.1-0.2c0-0.1-0.1-0.4-0.2-0.8l-0.2-0.6c-0.1,0-0.7,0-1.7,0c-0.3,0.7-0.4,1.1-0.4,1.3
			c0,0.1,0.1,0.3,0.2,0.3c0.1,0.1,0.2,0.1,0.4,0.1c0.1,0,0.1,0,0.1,0.1c0,0,0,0,0,0.1c-0.4,0-0.6,0-0.7,0c-0.4,0-0.7,0-0.8,0
			c-0.1,0-0.1,0-0.1-0.1c0,0,0-0.1,0.1-0.1c0.3,0,0.5-0.2,0.6-0.6c0.1-0.3,0.4-0.9,0.7-1.8C108.6,36.1,108.9,35.4,109.2,34.6"/>
		<path class="st0" d="M113.3,34.8c0.1,0.2,0.4,0.5,0.8,0.9l1.2,1.3l1.1,1.3c0-0.4,0-1,0-1.7c0-0.5,0-0.9,0-1c0-0.2-0.1-0.3-0.2-0.4
			c-0.1-0.1-0.3-0.2-0.5-0.2c-0.1,0-0.1,0-0.1-0.1c0,0,0,0,0-0.1c0,0,0.2,0,0.5,0c0.3,0,0.6,0,0.8,0h0.6c0.1,0,0.1,0,0.1,0.1
			c0,0,0,0.1-0.1,0.1c-0.2,0-0.4,0.1-0.5,0.2s-0.2,0.2-0.2,0.4c0,0.2,0,0.8,0,1.9l0,1.9c0,0.1,0,0.1-0.1,0.1c0,0,0,0,0,0
			c0,0-0.1-0.1-0.3-0.4c-0.2-0.2-0.4-0.5-0.7-0.8c-0.3-0.3-0.5-0.6-0.7-0.8c-0.4-0.4-0.6-0.7-0.7-0.8c-0.3-0.4-0.6-0.6-0.6-0.7
			c0-0.1-0.1-0.1-0.1-0.1c0,0,0,0,0,0.1l0,0.6c0,0.7,0,1.3,0.1,1.7c0,0.4,0.1,0.7,0.1,0.7c0,0.1,0.1,0.1,0.2,0.2
			c0.1,0.1,0.2,0.1,0.3,0.1c0.2,0,0.2,0,0.2,0.1c0,0,0,0.1-0.1,0.1h-1.7c-0.1,0-0.1,0-0.1-0.1c0,0,0-0.1,0.1-0.1
			c0.3,0,0.5-0.1,0.6-0.2c0.1-0.1,0.1-0.4,0.1-0.8l0-1.3c0-0.7,0-1.2-0.1-1.3c0-0.1-0.1-0.3-0.3-0.5c-0.1-0.2-0.3-0.3-0.5-0.3
			c-0.1,0-0.1,0-0.1-0.1c0,0,0.1-0.1,0.2-0.1L113.3,34.8L113.3,34.8z"/>
		<path class="st0" d="M118.8,34.8c0.1,0.2,0.4,0.5,0.8,0.9l1.2,1.3l1.1,1.3c0-0.4,0-1,0-1.7c0-0.5,0-0.9,0-1c0-0.2-0.1-0.3-0.2-0.4
			c-0.1-0.1-0.3-0.2-0.5-0.2c-0.1,0-0.1,0-0.1-0.1c0,0,0,0,0-0.1c0,0,0.2,0,0.5,0c0.3,0,0.6,0,0.8,0h0.6c0.1,0,0.1,0,0.1,0.1
			c0,0,0,0.1-0.1,0.1c-0.2,0-0.4,0.1-0.5,0.2s-0.2,0.2-0.2,0.4c0,0.2,0,0.8,0,1.9l0,1.9c0,0.1,0,0.1-0.1,0.1c0,0,0,0,0,0
			c0,0-0.1-0.1-0.3-0.4c-0.2-0.2-0.4-0.5-0.7-0.8c-0.3-0.3-0.5-0.6-0.7-0.8c-0.4-0.4-0.6-0.7-0.7-0.8c-0.3-0.4-0.6-0.6-0.6-0.7
			c0-0.1-0.1-0.1-0.1-0.1c0,0,0,0,0,0.1l0,0.6c0,0.7,0,1.3,0.1,1.7c0,0.4,0.1,0.7,0.1,0.7c0,0.1,0.1,0.1,0.2,0.2
			c0.1,0.1,0.2,0.1,0.3,0.1c0.2,0,0.2,0,0.2,0.1c0,0,0,0.1-0.1,0.1h-1.7c-0.1,0-0.1,0-0.1-0.1c0,0,0-0.1,0.1-0.1
			c0.3,0,0.5-0.1,0.6-0.2c0.1-0.1,0.1-0.4,0.1-0.8l0-1.3c0-0.7,0-1.2-0.1-1.3c0-0.1-0.1-0.3-0.3-0.5c-0.1-0.2-0.3-0.3-0.5-0.3
			c-0.1,0-0.1,0-0.1-0.1c0,0,0.1-0.1,0.2-0.1L118.8,34.8L118.8,34.8z"/>
		<path class="st0" d="M125.3,35.4c-0.2,0.5-0.5,1.1-0.8,2c0.2,0,0.4,0,0.5,0l1,0c-0.1-0.3-0.2-0.6-0.4-1
			C125.5,35.9,125.3,35.6,125.3,35.4 M125.4,34.6h0.2c0.3,0.5,0.6,1.5,1.1,2.8c0.3,0.9,0.5,1.4,0.6,1.6c0.1,0.2,0.3,0.3,0.5,0.3
			c0.1,0,0.1,0,0.1,0.1c0,0,0,0-0.1,0h0c-0.2,0-0.5,0-0.8,0c-0.5,0-0.9,0-1,0c-0.1,0-0.1,0-0.1-0.1c0,0,0,0,0.1-0.1
			c0.2,0,0.3-0.1,0.4-0.1c0.1,0,0.1-0.1,0.1-0.2c0-0.1-0.1-0.4-0.2-0.8l-0.2-0.6c-0.1,0-0.7,0-1.7,0c-0.3,0.7-0.4,1.1-0.4,1.3
			c0,0.1,0.1,0.3,0.2,0.3c0.1,0.1,0.2,0.1,0.4,0.1c0.1,0,0.1,0,0.1,0.1c0,0,0,0,0,0.1c-0.4,0-0.6,0-0.7,0c-0.4,0-0.7,0-0.8,0
			c-0.1,0-0.1,0-0.1-0.1c0,0,0-0.1,0.1-0.1c0.3,0,0.5-0.2,0.6-0.6c0.1-0.3,0.4-0.9,0.7-1.8C124.8,36.1,125.1,35.4,125.4,34.6"/>
		<path class="st0" d="M33.8,4.5l0,1.6c0,1.1,0,1.8,0.1,1.9c0,0.1,0.1,0.3,0.2,0.4c0.1,0.1,0.4,0.2,0.7,0.2c0.2,0,0.3,0.1,0.3,0.1
			C35.1,8.9,35,9,34.8,9c-0.1,0-0.2,0-0.4,0c-0.5,0-0.9-0.1-1.2-0.1c-0.3,0-0.7,0-1.3,0l-0.4,0c-0.1,0-0.2,0-0.2-0.1
			c0-0.1,0.1-0.1,0.3-0.1c0.3,0,0.5-0.1,0.6-0.2c0.1-0.2,0.2-0.6,0.2-1.2c0-0.6,0.1-1.5,0.1-2.6c0-1,0-1.8-0.1-2.4s-0.1-1-0.1-1.1
			c-0.1-0.2-0.2-0.3-0.3-0.4s-0.4-0.1-0.7-0.1c-0.1,0-0.2-0.1-0.2-0.1c0-0.1,0.1-0.1,0.2-0.1c1.1-0.1,3.2-0.1,6.2-0.1
			c0.5,0,0.8,0,0.9,0s0.1,0,0.1,0.1c0,0,0.1,0.3,0.2,0.9s0.1,0.9,0.1,0.9c0,0.1,0,0.1-0.1,0.1c-0.1,0-0.1,0-0.2-0.1
			c-0.6-1.1-1.6-1.6-3-1.6c-0.5,0-0.9,0-1.2,0.1c-0.3,0-0.5,0.1-0.5,0.2c0,0.1-0.1,0.3-0.1,0.8c0,0.5,0,1.3,0,2.6c0.3,0,0.6,0,0.7,0
			c0.6,0,1.1-0.1,1.3-0.4c0.3-0.3,0.4-0.5,0.4-0.8c0-0.2,0.1-0.3,0.2-0.3c0.1,0,0.1,0.1,0.1,0.2c0,0,0,0.1,0,0.2c0,0.3,0,0.9,0,2
			v0.8c0,0.2-0.1,0.3-0.2,0.3c-0.1,0-0.1-0.1-0.1-0.2c0-0.4-0.1-0.7-0.4-1c-0.2-0.3-0.7-0.4-1.4-0.4C34.2,4.5,34,4.5,33.8,4.5"/>
		<path class="st0" d="M41.6,0.2l1.2,0l1.8,0c0.2,0,0.3,0,0.3,0.1c0,0.1-0.1,0.1-0.2,0.1C44.3,0.5,44,0.7,43.9,1
			c-0.1,0.3-0.2,1.4-0.2,3.2c0,0.7,0,1.4,0.1,2.3c0,0.9,0.1,1.4,0.1,1.5c0,0.2,0.1,0.3,0.3,0.4c0.1,0.1,0.4,0.2,0.7,0.2
			c0.1,0,0.2,0.1,0.2,0.1c0,0.1,0,0.1-0.2,0.1l-1.6,0l-1.4,0c-0.2,0-0.2,0-0.2-0.1c0-0.1,0.1-0.1,0.2-0.1c0.4,0,0.7-0.1,0.7-0.4
			c0.1-0.3,0.1-1.1,0.1-2.5s0-2.5,0-3.3c0-0.8-0.1-1.4-0.2-1.6c-0.1-0.2-0.3-0.3-0.7-0.4c-0.1,0-0.2-0.1-0.2-0.2S41.5,0.2,41.6,0.2"
			/>
		<path class="st0" d="M49.6,0.3c0.3,0.4,0.7,0.9,1.4,1.7l2.1,2.4l2,2.3c0-0.8,0.1-1.8,0.1-3.1c0-1,0-1.6-0.1-1.9
			c0-0.3-0.2-0.6-0.4-0.8c-0.3-0.2-0.6-0.3-0.9-0.3c-0.2,0-0.3,0-0.3-0.1c0,0,0-0.1,0.1-0.1c0,0,0.3,0,0.9-0.1c0.6,0,1,0,1.4,0
			l0.9,0h0.1c0.1,0,0.2,0,0.2,0.1c0,0.1-0.1,0.1-0.2,0.1c-0.4,0-0.8,0.2-1,0.3c-0.2,0.2-0.3,0.4-0.3,0.8c0,0.3-0.1,1.5-0.1,3.5
			l-0.1,3.5c0,0.2,0,0.3-0.1,0.3c0,0-0.1,0-0.1,0S55,8.6,54.6,8.2c-0.4-0.4-0.8-0.9-1.3-1.5c-0.5-0.6-0.9-1.1-1.2-1.4
			C51.4,4.4,51,4,50.8,3.8c-0.6-0.7-1-1.1-1.1-1.3c-0.1-0.1-0.1-0.2-0.2-0.2c0,0-0.1,0.1-0.1,0.3l0,1c0,1.3,0,2.3,0.1,3.1
			c0.1,0.8,0.1,1.2,0.2,1.4c0.1,0.1,0.2,0.3,0.4,0.4c0.2,0.1,0.4,0.2,0.6,0.2c0.3,0,0.4,0.1,0.4,0.2c0,0.1-0.1,0.1-0.2,0.1l-3.2,0
			c-0.1,0-0.2,0-0.2-0.1c0-0.1,0.1-0.1,0.2-0.1c0.5,0,0.9-0.1,1.1-0.4c0.2-0.2,0.3-0.7,0.3-1.5l-0.1-2.3c0-1.4,0-2.2-0.1-2.4
			c-0.1-0.2-0.2-0.5-0.5-0.9c-0.3-0.3-0.6-0.5-0.9-0.6c-0.1,0-0.2-0.1-0.2-0.1c0-0.1,0.1-0.1,0.3-0.1L49.6,0.3L49.6,0.3z"/>
		<path class="st0" d="M66.3,0.3c0.1,0.5,0.3,1.2,0.4,2.1c0,0,0,0.1-0.1,0.1c0,0-0.1,0-0.1-0.1c-0.3-0.5-0.6-0.9-0.9-1.1
			C65.3,1,65,0.9,64.8,0.8c-0.3-0.1-0.8-0.2-1.4-0.2c-0.6,0-1.2,0-1.5,0.1c0,0-0.1,0.1-0.1,0.2c0,0,0,0.1,0,0.2
			c0,0.3-0.1,1.3-0.1,2.9c0,0.1,0,0.2,0,0.3c0.3,0,0.6,0,0.7,0c0.6,0,1-0.1,1.2-0.3c0.3-0.2,0.5-0.5,0.7-1.1c0-0.1,0.1-0.1,0.1-0.1
			c0.1,0,0.1,0.1,0.1,0.2l0,0.3c0,0.3-0.1,0.7-0.1,1.1c0,0.6,0,1.1,0,1.6c0,0.1,0,0.2-0.1,0.2c-0.1,0-0.1-0.1-0.1-0.2
			c-0.1-0.5-0.3-0.9-0.6-1.1c-0.3-0.2-0.9-0.3-1.9-0.3c0,0.3,0,0.8,0,1.6c0,0.9,0,1.5,0.1,1.8c0.1,0.3,0.2,0.5,0.5,0.6
			c0.3,0.1,0.7,0.2,1.3,0.2c1.7,0,2.8-0.6,3.3-1.8c0.1-0.1,0.1-0.2,0.2-0.2c0.1,0,0.1,0,0.1,0.1c0,0.1,0,0.1,0,0.2
			c0,0.1-0.1,0.4-0.2,0.9c0,0.1-0.1,0.5-0.3,1h-2.8c-0.4,0-1,0-1.7-0.1c-0.8,0-1.5,0-2-0.1c-0.6,0-0.9,0-0.9,0c0,0,0,0,0-0.1
			c0-0.1,0.1-0.1,0.2-0.1c0.5,0,0.8-0.1,1-0.4c0.2-0.3,0.2-0.9,0.2-1.9l0-1.3l0-1.3c0-0.3,0-0.7,0-1.4c0-0.7-0.1-1.1-0.1-1.2
			c0-0.1-0.1-0.2-0.2-0.3c-0.1-0.1-0.4-0.2-0.7-0.3c-0.1,0-0.2-0.1-0.2-0.1c0-0.1,0.1-0.1,0.2-0.1l1.4,0.1c0.5,0,1.6,0,3.5,0
			C65.6,0.3,66.2,0.3,66.3,0.3"/>
		<path class="st0" d="M71.9,6.6c0,0.6,0,1,0.1,1.2c0.1,0.2,0.2,0.5,0.5,0.6s0.7,0.2,1.2,0.2c0.8,0,1.5-0.2,2-0.6
			c0.5-0.4,0.9-0.9,1.2-1.5c0.3-0.6,0.4-1.3,0.4-2c0-1-0.3-2-1-2.8c-0.6-0.8-1.6-1.3-3-1.3c-0.6,0-1,0-1,0.1c-0.1,0-0.1,0.2-0.1,0.3
			c0,0.2,0,0.5,0,0.9C72,2.5,72,3,72,3.4l-0.1,1.8C71.9,6,71.9,6.5,71.9,6.6 M72.1,0.3l1.4,0c1.7,0,3,0.4,3.9,1.3
			c0.9,0.8,1.3,1.9,1.3,3.2c0,0.9-0.2,1.7-0.6,2.4c-0.4,0.7-1,1.2-1.6,1.5C75.9,8.9,75,9,73.9,9c-0.2,0-0.5,0-0.9,0
			c-0.7-0.1-1-0.1-1.1-0.1c-1.4,0-2.3,0-2.6,0c-0.1,0-0.2,0-0.2-0.1c0,0,0-0.1,0.1-0.1c0.1,0,0.2,0,0.5-0.1c0.4,0,0.6-0.2,0.7-0.4
			c0.1-0.2,0.2-1,0.3-2.2l0.1-3.5c0-0.4,0-0.8-0.1-1.2c-0.1-0.4-0.1-0.6-0.3-0.7c-0.1-0.1-0.3-0.2-0.6-0.2c-0.2,0-0.3-0.1-0.3-0.2
			c0-0.1,0-0.1,0.1-0.1c0.1,0,0.4,0,0.8,0.1C71.1,0.3,71.6,0.3,72.1,0.3"/>
		<path class="st0" d="M81.6,0.2l1.2,0l1.8,0c0.2,0,0.3,0,0.3,0.1c0,0.1-0.1,0.1-0.2,0.1C84.3,0.5,84,0.7,83.9,1
			c-0.1,0.3-0.2,1.4-0.2,3.2c0,0.7,0,1.4,0.1,2.3c0,0.9,0.1,1.4,0.1,1.5c0,0.2,0.1,0.3,0.3,0.4c0.1,0.1,0.4,0.2,0.7,0.2
			C85,8.7,85,8.7,85,8.8c0,0.1,0,0.1-0.2,0.1l-1.6,0l-1.4,0c-0.2,0-0.2,0-0.2-0.1c0-0.1,0.1-0.1,0.2-0.1c0.4,0,0.7-0.1,0.7-0.4
			c0.1-0.3,0.1-1.1,0.1-2.5s0-2.5,0-3.3c0-0.8-0.1-1.4-0.2-1.6c-0.1-0.2-0.3-0.3-0.7-0.4c-0.1,0-0.2-0.1-0.2-0.2S81.5,0.2,81.6,0.2"
			/>
		<path class="st0" d="M89.6,0.3C89.9,0.7,90.4,1.2,91,2l2.1,2.4l2,2.3c0-0.8,0.1-1.8,0.1-3.1c0-1,0-1.6-0.1-1.9
			c0-0.3-0.2-0.6-0.4-0.8s-0.6-0.3-0.9-0.3c-0.2,0-0.3,0-0.3-0.1c0,0,0-0.1,0.1-0.1c0,0,0.3,0,0.9-0.1c0.6,0,1,0,1.4,0l0.9,0h0.1
			c0.1,0,0.2,0,0.2,0.1c0,0.1-0.1,0.1-0.2,0.1c-0.4,0-0.8,0.2-1,0.3c-0.2,0.2-0.3,0.4-0.3,0.8s-0.1,1.5-0.1,3.5l-0.1,3.5
			c0,0.2,0,0.3-0.1,0.3c0,0-0.1,0-0.1,0c0,0-0.2-0.2-0.6-0.7c-0.4-0.4-0.8-0.9-1.3-1.5c-0.5-0.6-0.9-1.1-1.2-1.4
			c-0.7-0.8-1.1-1.3-1.2-1.5c-0.6-0.7-1-1.1-1.1-1.3c-0.1-0.1-0.1-0.2-0.2-0.2c0,0-0.1,0.1-0.1,0.3l0,1c0,1.3,0,2.3,0.1,3.1
			c0.1,0.8,0.1,1.2,0.2,1.4s0.2,0.3,0.4,0.4c0.2,0.1,0.4,0.2,0.6,0.2c0.3,0,0.4,0.1,0.4,0.2c0,0.1-0.1,0.1-0.2,0.1l-3.2,0
			c-0.1,0-0.2,0-0.2-0.1c0-0.1,0.1-0.1,0.2-0.1c0.5,0,0.9-0.1,1.1-0.4c0.2-0.2,0.3-0.7,0.3-1.5l-0.1-2.3c0-1.4,0-2.2-0.1-2.4
			c-0.1-0.2-0.2-0.5-0.5-0.9c-0.3-0.3-0.6-0.5-0.9-0.6c-0.1,0-0.2-0.1-0.2-0.1c0-0.1,0.1-0.1,0.3-0.1L89.6,0.3L89.6,0.3z"/>
		<path class="st0" d="M99.7,0.2l1.2,0l1.8,0c0.2,0,0.3,0,0.3,0.1c0,0.1-0.1,0.1-0.2,0.1c-0.5,0.1-0.8,0.2-0.9,0.5
			c-0.1,0.3-0.2,1.4-0.2,3.2c0,0.7,0,1.4,0.1,2.3c0,0.9,0.1,1.4,0.1,1.5c0,0.2,0.1,0.3,0.3,0.4c0.1,0.1,0.4,0.2,0.7,0.2
			c0.1,0,0.2,0.1,0.2,0.1c0,0.1,0,0.1-0.2,0.1l-1.6,0l-1.4,0c-0.2,0-0.2,0-0.2-0.1c0-0.1,0.1-0.1,0.2-0.1c0.4,0,0.7-0.1,0.7-0.4
			c0.1-0.3,0.1-1.1,0.1-2.5s0-2.5,0-3.3c0-0.8-0.1-1.4-0.2-1.6c-0.1-0.2-0.3-0.3-0.7-0.4c-0.1,0-0.2-0.1-0.2-0.2S99.6,0.2,99.7,0.2"
			/>
		<path class="st0" d="M107.7,0.3c0.3,0.4,0.7,0.9,1.4,1.7l2.1,2.4l2,2.3c0-0.8,0.1-1.8,0.1-3.1c0-1,0-1.6-0.1-1.9
			c0-0.3-0.2-0.6-0.4-0.8c-0.3-0.2-0.6-0.3-0.9-0.3c-0.2,0-0.3,0-0.3-0.1c0,0,0-0.1,0.1-0.1c0,0,0.3,0,0.9-0.1c0.6,0,1,0,1.4,0
			l0.9,0h0.1c0.1,0,0.2,0,0.2,0.1c0,0.1-0.1,0.1-0.2,0.1c-0.4,0-0.8,0.2-1,0.3c-0.2,0.2-0.3,0.4-0.3,0.8c0,0.3-0.1,1.5-0.1,3.5
			l-0.1,3.5c0,0.2,0,0.3-0.1,0.3c0,0-0.1,0-0.1,0c0,0-0.2-0.2-0.6-0.7c-0.4-0.4-0.8-0.9-1.3-1.5s-0.9-1.1-1.2-1.4
			c-0.7-0.8-1.1-1.3-1.2-1.5c-0.6-0.7-1-1.1-1.1-1.3c-0.1-0.1-0.1-0.2-0.2-0.2c0,0-0.1,0.1-0.1,0.3l0,1c0,1.3,0,2.3,0.1,3.1
			c0.1,0.8,0.1,1.2,0.2,1.4s0.2,0.3,0.4,0.4c0.2,0.1,0.4,0.2,0.6,0.2c0.3,0,0.4,0.1,0.4,0.2c0,0.1-0.1,0.1-0.2,0.1l-3.2,0
			c-0.1,0-0.2,0-0.2-0.1c0-0.1,0.1-0.1,0.2-0.1c0.5,0,0.9-0.1,1.1-0.4c0.2-0.2,0.3-0.7,0.3-1.5l-0.1-2.3c0-1.4,0-2.2-0.1-2.4
			s-0.2-0.5-0.5-0.9c-0.3-0.3-0.6-0.5-0.9-0.6c-0.1,0-0.2-0.1-0.2-0.1c0-0.1,0.1-0.1,0.3-0.1L107.7,0.3L107.7,0.3z"/>
		<path class="st0" d="M125.8,3c-0.1,0-0.1-0.1-0.2-0.2c-0.4-0.8-0.8-1.4-1.4-1.8s-1.2-0.6-1.9-0.6c-0.6,0-1.1,0.2-1.6,0.5
			c-0.5,0.3-0.9,0.8-1.3,1.5c-0.3,0.7-0.5,1.4-0.5,2.2c0,1.1,0.3,2.1,1,2.9c0.7,0.8,1.5,1.2,2.5,1.2c0.4,0,0.7-0.1,0.9-0.2
			c0.3-0.1,0.5-0.3,0.7-0.5c0.2-0.2,0.4-0.4,0.4-0.5c0-0.1,0.1-0.4,0.1-0.8c0-0.7-0.1-1.2-0.3-1.4S123.7,5,123.3,5l-0.2,0
			c-0.1,0-0.2,0-0.2-0.1c0-0.1,0.1-0.2,0.2-0.2l0.3,0l1.5,0l1.8,0c0.1,0,0.2,0,0.2,0.1c0,0.1-0.1,0.1-0.2,0.2
			c-0.3,0-0.5,0.1-0.7,0.2c-0.2,0.1-0.3,0.2-0.3,0.3c0,0.1-0.1,0.3-0.1,0.6c0,1,0,1.6-0.1,1.7c0,0.1-0.5,0.3-1.2,0.7
			c-0.8,0.4-1.5,0.5-2.3,0.5c-1.3,0-2.4-0.4-3.3-1.2c-0.9-0.8-1.4-1.9-1.4-3.1c0-0.9,0.2-1.7,0.7-2.4s1-1.3,1.8-1.6s1.5-0.6,2.3-0.6
			c0.7,0,1.5,0.2,2.4,0.6c0.2,0.1,0.4,0.2,0.5,0.2c0.1,0,0.2-0.1,0.3-0.2c0.1-0.1,0.1-0.2,0.2-0.2c0.1,0,0.2,0.1,0.2,0.4
			c0,0.4,0.1,1,0.2,1.8c0,0,0,0.1,0,0.1C125.9,3,125.9,3,125.8,3"/>
		<path class="st0" d="M45,26c0-0.3-0.1-0.4-0.2-0.4c-0.2,0-0.4,0-0.6,0H31.8V25c0.5,0,0.8-0.2,0.8-0.5V12.8c0-0.3-0.3-0.5-0.8-0.5
			v-0.5h4.5v0.5c-0.5,0-0.7,0.2-0.7,0.5v10.3h8.6c0.3,0,0.5-0.1,0.6-0.2c0.2-0.1,0.2-0.3,0.2-0.5h0.5V26L45,26L45,26z"/>
		<path class="st0" d="M55,14.1c-0.7,0-1.3,0.1-2,0.3c-0.7,0.2-1.2,0.5-1.8,0.9s-1,0.9-1.3,1.4c-0.3,0.6-0.5,1.2-0.5,1.9
			s0.2,1.4,0.5,1.9c0.3,0.6,0.8,1,1.3,1.4c0.5,0.4,1.1,0.7,1.8,0.9c0.7,0.2,1.3,0.3,2,0.3c0.7,0,1.3-0.1,2-0.3
			c0.7-0.2,1.2-0.5,1.8-0.9c0.5-0.4,1-0.9,1.3-1.4c0.3-0.6,0.5-1.2,0.5-1.9s-0.2-1.4-0.5-1.9c-0.3-0.6-0.8-1-1.3-1.4
			c-0.5-0.4-1.1-0.7-1.8-0.9C56.3,14.2,55.7,14.1,55,14.1 M55,11.7c1,0,1.9,0.1,2.9,0.4c1,0.3,1.9,0.7,2.7,1.3
			c0.8,0.6,1.5,1.3,2,2.2c0.5,0.9,0.8,1.9,0.8,3.1c0,1.2-0.3,2.2-0.8,3.1s-1.2,1.6-2,2.2c-0.8,0.6-1.7,1-2.7,1.2
			c-1,0.3-2,0.4-2.9,0.4c-1,0-1.9-0.1-2.9-0.4c-1-0.3-1.9-0.7-2.7-1.2c-0.8-0.6-1.5-1.3-2-2.2c-0.5-0.9-0.8-1.9-0.8-3.1
			c0-1.2,0.3-2.2,0.8-3.1c0.5-0.9,1.2-1.6,2-2.2c0.8-0.6,1.7-1,2.7-1.3S54.1,11.7,55,11.7"/>
		<path class="st0" d="M79.1,12.4c-0.3,0-0.6,0.1-0.8,0.4c-0.2,0.3-0.3,0.5-0.3,0.6l-4.6,10c-0.2,0.3-0.3,0.6-0.4,0.8
			c-0.1,0.2-0.2,0.4-0.2,0.4s0,0.2,0.1,0.2c0,0.1,0.1,0.1,0.2,0.2v0.5h-4V25c0.2-0.1,0.2-0.2,0.2-0.4c0-0.1-0.1-0.3-0.2-0.5
			c-0.1-0.3-0.3-0.6-0.5-1L64.1,13c-0.1-0.2-0.2-0.3-0.4-0.4c-0.2-0.1-0.4-0.2-0.7-0.3v-0.5h4.6v0.5c-0.1,0-0.2,0-0.3,0.1
			c-0.1,0.1-0.2,0.2-0.2,0.3c0,0.2,0.1,0.4,0.2,0.7c0.1,0.3,0.3,0.7,0.5,1.1l3.3,7.1l3.2-7c0.2-0.4,0.4-0.8,0.6-1.2
			c0.2-0.4,0.3-0.6,0.3-0.7c0-0.3-0.2-0.4-0.7-0.4v-0.5h4.5L79.1,12.4L79.1,12.4z"/>
		<path class="st0" d="M93.4,14.7c0-0.2-0.1-0.3-0.2-0.4c-0.1-0.1-0.4-0.1-0.8-0.1h-8.4v3.2h5.1c0.3,0,0.6,0,0.8-0.1
			c0.2-0.1,0.3-0.3,0.3-0.7h0.5v4h-0.5c0-0.4-0.1-0.6-0.3-0.8c-0.2-0.1-0.5-0.2-0.8-0.2h-5.1v3.6h8.7c0.3,0,0.5-0.1,0.6-0.2
			c0.2-0.1,0.2-0.3,0.2-0.5h0.5V26h-0.5c0-0.3-0.1-0.4-0.2-0.4c-0.2,0-0.4-0.1-0.6-0.1H80.6V25c0.1,0,0.2,0,0.3-0.1
			c0.1-0.1,0.1-0.2,0.1-0.3V12.8c0-0.2,0-0.3-0.1-0.3c-0.1-0.1-0.2-0.1-0.3-0.1v-0.5h11.8c0.4,0,0.6-0.1,0.8-0.2s0.2-0.3,0.2-0.5
			h0.5v3.4H93.4z"/>
		<path class="st0" d="M104.9,17.9c0.6,0,1.1,0,1.6-0.1c0.4-0.1,0.7-0.2,1-0.4c0.2-0.2,0.4-0.4,0.5-0.6c0.1-0.2,0.2-0.5,0.2-0.8
			s-0.1-0.5-0.2-0.8s-0.3-0.4-0.5-0.6c-0.2-0.2-0.6-0.3-1-0.4c-0.4-0.1-0.9-0.1-1.6-0.1h-4.5v3.8L104.9,17.9L104.9,17.9z
			 M105.6,11.9c0.8,0,1.6,0.1,2.3,0.2c0.7,0.1,1.3,0.4,1.7,0.7c0.5,0.3,0.9,0.7,1.1,1.2c0.3,0.5,0.4,1.1,0.4,1.9c0,1.1-0.3,2-1,2.6
			c-0.7,0.6-1.6,1-2.7,1.2l3.4,4.9c0.1,0.2,0.3,0.3,0.4,0.3c0.2,0,0.3,0.1,0.5,0.1v0.5h-4.8V25c0.2,0,0.3,0,0.4-0.1
			c0.1-0.1,0.2-0.1,0.2-0.2c0-0.1,0-0.2-0.1-0.3c-0.1-0.1-0.2-0.3-0.3-0.5l-2.8-4h-3.7v4.6c0,0.2,0.1,0.3,0.2,0.3
			c0.1,0.1,0.3,0.1,0.6,0.1v0.5h-4.5V25c0.5,0,0.8-0.2,0.8-0.5V12.8c0-0.3-0.3-0.5-0.8-0.5v-0.5H105.6L105.6,11.9z"/>
		<path class="st0" d="M114.9,21.2l0.3,0.1c0,0.2,0,0.3,0.1,0.4c0.1,0.2,0.4,0.4,0.7,0.6c0.4,0.2,0.8,0.4,1.2,0.5
			c0.5,0.2,0.9,0.3,1.4,0.4c0.5,0.1,1,0.1,1.3,0.1c0.3,0,0.7,0,1.1-0.1c0.5,0,0.9-0.1,1.4-0.3c0.4-0.1,0.8-0.3,1.2-0.6
			c0.3-0.2,0.5-0.6,0.5-1s-0.2-0.7-0.5-0.9c-0.3-0.2-0.7-0.3-1.2-0.4c-0.5-0.1-1.1-0.1-1.7-0.2s-1.3-0.1-1.9-0.1
			c-0.7,0-1.3-0.1-1.9-0.3c-0.6-0.1-1.2-0.3-1.7-0.6c-0.5-0.3-0.9-0.7-1.2-1.2c-0.3-0.5-0.5-1.1-0.5-1.9c0-0.5,0.1-1.1,0.4-1.6
			c0.3-0.5,0.6-1,1.2-1.4c0.5-0.4,1.2-0.7,2-1s1.7-0.4,2.8-0.4c0.9,0,1.7,0.1,2.4,0.2c0.7,0.1,1.3,0.3,1.7,0.4
			c0.5,0.2,0.9,0.3,1.2,0.4c0.3,0.1,0.6,0.2,0.8,0.2c0.2,0,0.4-0.1,0.5-0.2l0.3,0.2l-1.8,3.2l-0.3-0.1c0-0.2-0.1-0.4-0.2-0.6
			c-0.1-0.2-0.4-0.4-0.7-0.6c-0.3-0.2-0.7-0.4-1.1-0.5c-0.4-0.2-0.9-0.3-1.4-0.4c-0.5-0.1-1-0.1-1.5-0.1c-0.4,0-0.8,0-1.2,0.1
			c-0.4,0.1-0.8,0.2-1.1,0.3s-0.6,0.3-0.8,0.5c-0.2,0.2-0.3,0.4-0.3,0.7c0,0.4,0.2,0.7,0.5,0.9c0.3,0.2,0.7,0.4,1.2,0.5
			c0.5,0.1,1.1,0.2,1.7,0.2s1.3,0.1,1.9,0.1c0.7,0.1,1.3,0.1,1.9,0.3c0.6,0.1,1.2,0.3,1.7,0.6c0.5,0.3,0.9,0.7,1.2,1.1
			c0.3,0.5,0.5,1.1,0.5,1.9c0,0.9-0.2,1.6-0.7,2.2c-0.5,0.6-1.1,1-1.8,1.3c-0.7,0.3-1.5,0.5-2.3,0.7c-0.8,0.1-1.6,0.2-2.3,0.2
			c-1,0-1.8-0.1-2.5-0.2c-0.7-0.1-1.2-0.3-1.7-0.4c-0.4-0.2-0.8-0.3-1-0.4c-0.3-0.1-0.5-0.2-0.7-0.2c-0.1,0-0.2,0.1-0.3,0.2
			l-0.4-0.2L114.9,21.2L114.9,21.2z"/>
		<path class="st0" d="M10.1,26.5c0-0.2-0.1-0.3-0.2-0.3c-0.1,0-0.3,0-0.5,0H0v-0.4c0.4,0,0.6-0.1,0.6-0.4v-8.9
			c0-0.2-0.2-0.4-0.6-0.4v-0.4h3.4v0.4c-0.4,0-0.6,0.1-0.6,0.4v7.8h6.5c0.2,0,0.4,0,0.5-0.1s0.2-0.2,0.2-0.4h0.4v2.7L10.1,26.5
			L10.1,26.5z"/>
	</g>
	<polygon class="st0" points="2,6.3 1.4,6.3 1.4,0.5 7.2,0.5 7.2,1.1 2,1.1 	"/>
	<polygon class="st0" points="26.6,6.3 26,6.3 26,1.1 20.8,1.1 20.8,0.5 26.6,0.5 	"/>
	<polygon class="st0" points="26.6,25.5 20.8,25.5 20.8,24.9 26,24.9 26,19.7 26.6,19.7 	"/>
</g>
<polygon class="st1" points="11.4,9.8 3.2,9.8 9.9,14.6 7.3,22.3 14,17.5 20.7,22.3 18.1,14.6 24.8,9.8 16.6,9.8 14,2 "/>
<polygon class="st0" points="5.2,10.4 10.7,14.3 8.6,20.6 14,16.7 19.4,20.6 17.3,14.3 22.7,10.4 16.1,10.4 14,4.1 11.9,10.4 "/>
<polygon class="st1" points="6.9,11 11.3,14.1 9.6,19.2 14,16.1 18.4,19.2 16.7,14.1 21.1,11 21.1,11 15.7,11 14,5.9 12.3,11 
	6.9,11 "/>
</svg>
